<svg id="Layer_1" xmlns="http://www.w3.org/2000/svg" width="342" height="184.9" viewBox="-227.2 210.2 342 184.9"><style>.st0{fill:#fff}.st1{fill:#ce6828}.st2{fill:#c42a2a}.st3{fill:#231f20}</style><path class="st0" d="M98.7 276.7h3.4l-7.3-46H9l6.9-17.4-64.4 9.7c-5.2-1-10.7-1.5-16.5-1.5-28.5 0-43.4 11.4-51 21.8.7-5.8 1.1-9.3 1.1-9.4l1.8-14.9-54-.7-4 6.9c-.1.1-3.4 5.7-9.1 11.3-5.7 5.6-13.9 11.1-23.5 11.1h-13.5v42l12.2 1.2c3.7.4 11.2.9 18.2.3l-23.4 98.7h88.9v-.3H5.5v-.3h43c1.6-.2 16.4-1.7 31.5-11.3 14.4-9.2 31.6-27.5 31.7-62.4-.2-18.5-6.3-30.8-13-38.8zm-251.1-31.3h2.9l-5 2.6c.8-.8 1.5-1.7 2.1-2.6z"/><path class="st1" d="M-49 236.7l43.6-6.5-12.5 31.2s-11.3-2.8-19.1-10.7-12-14-12-14z"/><path class="st2" d="M7.8 295s3.4-14 3.4-28.4c0-14.4-6.1-22.4-6.1-22.4h78.1l3 19H33.9v6.8S98 259.8 98 315.5s-50.8 60.3-50.8 60.3H16.1v-43.2s31.5 9.5 37.2-15.5S31.5 271.3 7.8 295zM-65 234.9c-47 0-47 35.3-47 35.3 0 43.6 39.4 25 39.4 25s-9.5-9.1-9.5-20.1c0-7.4 3.8-12.3 9.5-14.8l23.6-23.6c-4.7-1.1-10-1.7-16-1.8z"/><path class="st3" d="M-49 236.7l-23.6 23.6c2.8-1.2 6.2-1.8 9.8-1.8 11 0 18.6 9.1 18.6 18.6 0 4.5.4 8.3-3 13.6l29.3-29.3c-4.1-9-12.8-20.4-31.1-24.7zm4.2 20.3c-3.2 0-5.9-2.6-5.9-5.9 0-3.2 2.6-5.9 5.9-5.9 3.2 0 5.9 2.6 5.9 5.9 0 3.2-2.6 5.9-5.9 5.9z"/><circle class="st0" cx="-44.8" cy="251.1" r="5.9"/><g><path class="st2" d="M-6.7 333.9L-7.8 376h-104.6s-1.9-36 34.1-59.5c18.9-12.4 27.4-20 31.2-25.8l29.3-29.3c3.1 6.7 3.6 11.9 3.6 11.9S-9.7 301.7-26 318c-16.3 16.3-21.6 21.2-21.6 21.2s9.1 4.5 20.9 4.5c11.7.1 20-9.8 20-9.8z"/></g><path class="st2" d="M-136 291.4c-4.2 30.3 0 84.9 0 84.9h-57.3l25.1-105.8s-7.2 3.8-13.6 6.1c-6.5 2.3-22 .8-22 .8v-16.3c27.7 0 44.4-29.2 44.4-29.2l31.1.4c-.1-.1-3.5 28.8-7.7 59.1z"/></svg>