<svg id="Layer_1" xmlns="http://www.w3.org/2000/svg" width="449.7" height="330" viewBox="-80 232 449.7 330"><style>.st0{fill:#f7f2d0}.st1{fill:#cf6928}.st2{fill:#c42a2a}.st3{fill:#fff}.st4{fill:#662121}.st5{fill:none;stroke:#f7f2d0;stroke-width:9;stroke-miterlimit:10}</style><path class="st0" d="M299.1 340.8l11.5-11 26.7 3.1-8.9 19.8-24.8 1.1z"/><path class="st0" d="M315.6 361.2c-3.6 0-6.4-1-8.3-2.9-1.9-1.9-2.9-4.5-2.9-7.8v-12.1h-2.8V328l2.5-1.2c.3-.2.6-.3.9-.4s.5-.2.8-.4c.2-.1.3-.1.5-.2.1-.1.2-.4.4-.9l.1-.2c.3-.6.5-1.2.7-1.8.2-.8.5-1.6.8-2.5l.9-3.2h13.1l.4 7.9h6.6v13.5H323v7.7c.1 0 .2 0 .3-.1l.5-.1h3.8l3.3 9.4-2.4 2c-.7.6-1.6 1.1-2.6 1.6-.9.4-1.9.8-3 1.2-1.1.3-2.2.6-3.4.8-1.3 0-2.6.1-3.9.1zm-2.2-29.8v19.1c0 .9.2 1.3.3 1.4.1 0 .4.2 1.1.2-.1-.1-.1-.2-.1-.4-.3-.8-.5-1.7-.6-2.9 0-.8-.1-1.8-.1-3.2v-14l-.1-1.1v.1c-.2.2-.3.5-.5.8z"/><path class="st0" d="M362.8 361.2h-40.3v-11.7l2.4-.5v-23l-3.2-.7v-11l15.5-1.8h1.5l4.6 3.4v9.5h.2c1.3-.3 2.7-.4 4.1-.4 2.2 0 4 .3 5.6 1 1.8.8 3.3 1.9 4.4 3.5 1 1.4 1.6 3 2 5 .3 1.6.4 3.3.4 5.3v9.2l2.8.5v11.7zm-12.2-9h.5v-12.5c0-1.4-.1-2.7-.3-3.7-.1-.8-.4-1.2-.5-1.5-.1-.1-.2-.2-.5-.3.3.8.5 1.6.7 2.5.1.9.2 1.9.2 3v12.5h-.1zm-16.7 0h.7v-10.1l-.7.6v9.5zm0-30.3v10l.4-3.8v-6.3l-.4.1zM246.6 501.3h29v8h-29zM233.7 284.2l40-2.5v30.6h-76z"/><circle class="st0" cx="149.2" cy="396.9" r="163.5"/><path class="st1" d="M160.4 329.4l43.6-6.5-12.5 31.1s-11.3-2.8-19.1-10.7c-7.8-7.9-12-13.9-12-13.9z"/><path class="st2" d="M217.1 387.7s3.4-14 3.4-28.4c0-14.4-6.1-22.4-6.1-22.4h78.1l3 19h-52.3v6.8s64.1-10.2 64.1 45.5-50.8 60.3-50.8 60.3h-31.1v-43.2s31.5 9.5 37.2-15.5-21.8-45.8-45.5-22.1zM144.3 327.6c-47 0-47 35.3-47 35.3 0 43.6 39.4 25 39.4 25s-9.5-9.1-9.5-20.1c0-7.4 3.8-12.3 9.5-14.8l23.6-23.6c-4.6-1.1-10-1.8-16-1.8z"/><path d="M160.4 329.4L136.7 353c2.8-1.2 6.2-1.8 9.8-1.8 11 0 18.6 9.1 18.6 18.6 0 4.5.4 8.3-3 13.6l29.3-29.3c-4-9-12.8-20.4-31-24.7zm4.2 20.2c-3.2 0-5.9-2.6-5.9-5.9 0-3.2 2.6-5.9 5.9-5.9 3.2 0 5.9 2.6 5.9 5.9 0 3.3-2.7 5.9-5.9 5.9z"/><circle class="st3" cx="164.6" cy="343.8" r="5.9"/><path class="st2" d="M307.9 333.8h-2.8v-3.1c.3-.1.6-.3.8-.4.2-.1.5-.2.8-.3s.5-.2.8-.3c.2-.1.5-.2.8-.4.3-.3.6-.7.9-1.2.3-.4.6-1 .8-1.7.3-.7.6-1.4.9-2.2.3-.8.5-1.7.8-2.7h5.4l.3 7.9h6.4v4.5h-6.3v11.8c0 1.2 0 2.2.1 2.9 0 .7.1 1.2.3 1.6.1.4.3.6.6.7.3.1.6.1 1.1.1.8 0 1.5-.1 2.1-.2s1.2-.2 1.7-.4l1.2 3.4c-.5.4-1 .7-1.7 1.1-.7.3-1.5.6-2.3.9-.8.3-1.8.5-2.8.6-1 .2-2 .2-3.1.2-2.3 0-4-.5-5.1-1.6-1-1.1-1.6-2.6-1.6-4.6l-.1-16.6zM326 353.1l2.4-.5.1-30.3-3.2-.7v-3.4l10.8-1.2h.1l1.6 1.2v10.2l-.5 4.4c.4-.4.9-.7 1.5-1.1.6-.4 1.3-.8 2.1-1.1.8-.3 1.6-.6 2.6-.8 1-.2 2-.3 3.1-.3 1.6 0 2.9.2 3.9.6s1.8 1.1 2.4 1.9c.6.9 1 1.9 1.2 3.2.2 1.3.4 2.8.3 4.5v13l2.8.5v3.5h-14.5v-3.5l2.3-.5v-13c0-1 0-1.8-.1-2.4-.1-.7-.2-1.2-.5-1.6-.2-.4-.5-.7-.9-.9-.4-.2-.9-.3-1.5-.3-.9 0-1.6.2-2.3.6-.7.4-1.3.8-1.7 1.3v16.3l2.4.5v3.5h-14.5l.1-3.6z"/><g><path class="st2" d="M23.5 464h11.4l1.6 5h36.8s-4.2-54.6 0-84.9c4.2-30.3 7.6-59.2 7.6-59.2l-31.1-.4s-16.7 29.2-44.4 29.2V370s15.5 1.5 22-.8 13.7-6.1 13.7-6.1L16.1 469h1.5l1.6-5h4.3zM118.8 462.8c.8-.8 1.8-1.5 2.9-2 1.1-.4 2.3-.7 3.6-.7s2.4.2 3.4.6c1.1.4 2 1 2.8 1.7.8.8 1.4 1.6 1.8 2.7.4 1 .6 2 .6 3v.6h67.6l1.2-42.1s-8.3 9.9-20.1 9.9-20.9-4.6-20.9-4.6 5.3-4.9 21.6-21.2c16.3-16.3 11.8-44.7 11.8-44.7s-.5-5.3-3.6-11.9l-29.3 29.3c-3.8 5.8-12.2 13.5-31.2 25.8-36 23.5-34.1 59.5-34.1 59.5h19.6c0-1.1.2-2.1.6-3.1.4-1.1 1-2 1.7-2.8z"/></g><g><path class="st4" d="M47.1 304l3-.3V290h-2.4l-1.1 5.6H44l.4-7.6h16.2l.3 7.6h-2.4l-1.2-5.6H55v13.7l3.3.3v1.7H47.1V304zM62.2 304l1.2-.2V289l-1.6-.4V287l5.3-.6h.1l.8.6v5l-.2 2.2c.2-.2.5-.4.7-.6.3-.2.6-.4 1-.5s.8-.3 1.3-.4c.5-.1 1-.2 1.5-.2.8 0 1.4.1 1.9.3.5.2.9.5 1.2.9.3.4.5.9.6 1.6.1.6.2 1.4.2 2.2v6.3l1.4.2v1.7h-7.1V304l1.1-.2v-6.3c0-.5 0-.9-.1-1.2 0-.3-.1-.6-.2-.8-.1-.2-.3-.3-.5-.4s-.4-.1-.7-.1c-.4 0-.8.1-1.1.3-.3.2-.6.4-.8.6v7.9l1.2.2v1.7h-7.1l-.1-1.7zM78.4 299.2c0-1.1.2-2.1.5-2.9.3-.8.8-1.5 1.3-2.1.6-.6 1.3-1 2.1-1.3.8-.3 1.8-.4 2.8-.4.9 0 1.7.1 2.4.3.7.2 1.2.5 1.7.9s.8.9 1 1.4c.2.6.4 1.2.4 1.9 0 .5 0 1-.1 1.4s-.1.7-.2 1h-7.2c.1 1.3.4 2.2 1 2.8.5.6 1.2.9 2.2.9.3 0 .6 0 .9-.1.3-.1.6-.1.9-.2s.6-.2.8-.3.5-.2.6-.3l.8 1.6c-.2.2-.4.4-.8.6-.4.2-.8.5-1.2.7-.5.2-1 .4-1.6.5s-1.2.2-1.8.2c-1.2 0-2.2-.2-3.1-.5-.8-.3-1.5-.8-2.1-1.4-.5-.6-.9-1.3-1.1-2.1 0-.8-.2-1.7-.2-2.6zm7.8-1.6v-.2-.2-.2-.2c0-.4 0-.7-.1-1-.1-.3-.1-.6-.2-.8-.1-.2-.2-.4-.4-.5-.2-.1-.4-.2-.7-.2-.2 0-.5 0-.7.1-.2.1-.4.2-.5.5-.1.2-.3.6-.4 1-.1.4-.1 1-.1 1.7h3.1zM97.8 303.9l1.7-.3v-13.3l-1.7-.3v-2h8.2c1.5 0 2.7.2 3.8.5 1.1.4 2 .9 2.8 1.6.7.7 1.3 1.5 1.7 2.6.4 1.1.5 2.2.5 3.5 0 1.4-.2 2.6-.6 3.8s-1 2.2-1.8 3.1-1.7 1.5-2.9 2-2.4.7-3.9.7H97.7l.1-1.9zm6.5-.3c.2.1.4.1.6.2.2.1.5.1.8.1.6 0 1.1-.1 1.6-.4.5-.3.9-.7 1.2-1.2.3-.6.6-1.3.7-2.2.2-.9.3-2 .3-3.2 0-1-.1-1.9-.2-2.8-.1-.9-.3-1.6-.7-2.2-.3-.6-.7-1.1-1.2-1.5s-1.1-.5-1.9-.5c-.4 0-.7 0-.9.1s-.3.1-.4.1l.1 13.5zM115.9 301.6c0-.7.2-1.3.5-1.9.3-.6.8-1 1.4-1.4.6-.4 1.4-.7 2.4-.9 1-.2 2.1-.3 3.4-.3v-.3c0-.3 0-.5-.1-.7-.1-.2-.2-.3-.3-.5-.2-.1-.4-.2-.7-.3s-.7-.1-1.1-.1c-.5 0-.9 0-1.3.1-.4 0-.8.1-1.1.2-.3.1-.6.1-.9.2s-.5.1-.7.2l-.9-1.7c.2-.1.4-.3.8-.5s.8-.4 1.4-.6c.5-.2 1.1-.4 1.8-.5.7-.1 1.4-.2 2.2-.2 1 0 1.9.1 2.5.3.7.2 1.2.5 1.6.8.4.3.7.9.9 1.5.2.6.3 1.3.3 2.2v6.5h1.2v1.7c-.1 0-.4.1-.6.1-.3 0-.6.1-.9.1s-.7.1-1 .1h-.9c-.4 0-.6 0-.9-.1-.2-.1-.4-.1-.5-.2s-.2-.3-.2-.4c0-.1-.1-.4-.1-.7v-.4c-.2.2-.4.4-.6.7s-.5.4-.8.6-.7.3-1.1.4c-.4.1-.8.2-1.3.2-.6 0-1.1-.1-1.6-.3-.5-.2-.9-.5-1.3-.8-.4-.4-.7-.8-.9-1.3-.5-.5-.6-1.1-.6-1.8zm4.8-.5c0 .3 0 .6.1.9s.2.5.3.7c.1.2.3.3.5.5.2.1.4.2.6.2.2 0 .5-.1.7-.2.3-.1.5-.3.6-.5V299c-.5 0-1 .1-1.4.2-.4.1-.7.3-.9.5-.2.2-.4.4-.5.7v.7zM130.1 304l1.3-.2v-8.5l-1.5-.5v-2.1l5.3-.6h.1l.8.5v11.1l1.2.2v1.8h-7.2V304zm2.4-13.3c-.3-.1-.5-.3-.7-.5-.2-.2-.4-.4-.5-.7s-.2-.5-.2-.9.1-.7.2-1c.1-.3.3-.6.5-.8.2-.2.5-.4.8-.5.3-.1.7-.2 1.1-.2.4 0 .8.1 1.1.2.3.1.6.3.8.5.2.2.4.4.5.7s.2.5.2.9-.1.7-.2 1c-.1.3-.3.6-.5.8-.2.2-.5.4-.9.5-.3.1-.7.2-1.2.2-.4-.1-.7-.1-1-.2zM138.6 304l1.3-.2v-15l-1.6-.4v-1.7l5.3-.6h.1l.8.6v17l1.3.2v1.8h-7.2V304zM148 308.2c.2 0 .3.1.5.1s.4.1.6.1h.5c.5 0 .9-.1 1.2-.2.3-.1.6-.3.8-.6.2-.2.4-.5.6-.8.2-.3.3-.7.5-1h-1.5l-4.5-11.3-1-.3v-1.7h7.7v1.7l-1.6.3 1.8 6 .5 1.9.4-1.9 1.7-6-1.4-.3v-1.7h5.7v1.7l-1.1.3c-.1.4-.3.8-.5 1.3s-.4 1.1-.6 1.7c-.2.6-.4 1.2-.7 1.9-.2.6-.4 1.3-.7 1.9-.3.6-.4 1.2-.6 1.7-.2.6-.4 1-.5 1.5-.2.4-.3.8-.4 1s-.1.4-.2.4c-.3.9-.7 1.7-1 2.4-.3.7-.8 1.3-1.2 1.8s-.9.8-1.5 1.1c-.5.2-1.2.4-1.9.4h-1.2c-.2 0-.4-.1-.5-.1-.2 0-.3-.1-.4-.1V308c.3.1.4.1.5.2zM166.4 297.1c0-1.5.2-2.7.7-3.9.5-1.2 1.1-2.1 1.9-2.9.8-.8 1.8-1.4 2.9-1.8s2.3-.6 3.6-.6H181.3l-.3 6.2h-3l-.9-3.9-.2-.2c-.1-.1-.2-.1-.3-.2-.1 0-.3-.1-.5-.1h-.7c-.5 0-1 .1-1.4.4-.4.3-.8.7-1.1 1.3s-.5 1.3-.7 2.1c-.2.9-.2 1.9-.2 3s.1 2.1.2 2.9c.1.9.4 1.6.6 2.3.3.6.6 1.1 1.1 1.4.4.3.9.5 1.5.5.3 0 .6 0 .8-.1.2 0 .4-.1.5-.1.2-.1.3-.1.4-.2l.3-.3 1.1-2.6 2.7.2-.4 4.1c-.3 0-.6.1-.8.1-.3.1-.5.1-.8.2s-.5.1-.8.2-.6.1-.9.2c-.3.1-.7.1-1.1.1s-.9.1-1.4.1c-1.5 0-2.7-.2-3.8-.6s-2-1-2.7-1.8c-.7-.8-1.2-1.7-1.6-2.7-.3-.8-.5-2-.5-3.3zM182.3 301.6c0-.7.2-1.3.5-1.9.3-.6.8-1 1.4-1.4.6-.4 1.4-.7 2.4-.9 1-.2 2.1-.3 3.4-.3v-.3c0-.3 0-.5-.1-.7-.1-.2-.2-.3-.3-.5-.2-.1-.4-.2-.7-.3s-.7-.1-1.1-.1c-.5 0-.9 0-1.3.1-.4 0-.8.1-1.1.2-.3.1-.6.1-.9.2s-.5.1-.7.2l-.9-1.7c.2-.1.4-.3.8-.5s.8-.4 1.4-.6c.5-.2 1.1-.4 1.8-.5.7-.1 1.4-.2 2.2-.2 1 0 1.9.1 2.5.3.7.2 1.2.5 1.6.8.4.3.7.9.9 1.5.2.6.3 1.3.3 2.2v6.5h1.2v1.7c-.1 0-.4.1-.6.1-.3 0-.6.1-.9.1s-.7.1-1 .1h-.9c-.4 0-.6 0-.9-.1-.2-.1-.4-.1-.5-.2s-.2-.3-.2-.4c0-.1-.1-.4-.1-.7v-.4c-.2.2-.4.4-.6.7s-.5.4-.8.6-.7.3-1.1.4c-.4.1-.8.2-1.3.2-.6 0-1.1-.1-1.6-.3-.5-.2-.9-.5-1.3-.8-.4-.4-.7-.8-.9-1.3-.5-.5-.6-1.1-.6-1.8zm4.8-.5c0 .3 0 .6.1.9s.2.5.3.7c.1.2.3.3.5.5.2.1.4.2.6.2s.5-.1.7-.2c.3-.1.5-.3.6-.5V299c-.5 0-1 .1-1.4.2-.4.1-.7.3-.9.5-.2.2-.4.4-.5.7v.7zM196.5 304l1.3-.2v-8.2l-1.3-.4V293l4.3-.6h.1l.8.5v.6l-.1 2h.1c.1-.3.2-.6.4-1s.5-.7.9-1 .8-.6 1.2-.8c.5-.2 1-.3 1.5-.3.2 0 .5 0 .6.1.2 0 .3.1.4.2v4.8c-.1-.1-.2-.2-.4-.3-.1-.1-.3-.2-.5-.2-.2-.1-.4-.1-.6-.2-.2 0-.5-.1-.8-.1-.5 0-.9.1-1.3.2s-.7.2-.8.4v6.6l2.4.2v1.7h-8.4V304h.2zM213.1 305.8c-.7 0-1.4-.1-2-.4-.6-.2-1.2-.6-1.6-1.1s-.8-1.2-1.1-2c-.3-.8-.4-1.8-.4-2.9 0-.6.1-1.2.2-1.8s.3-1.1.6-1.6.6-1 1-1.4.9-.8 1.4-1.1 1.2-.6 1.8-.7c.7-.2 1.4-.3 2.3-.3h.5c.2 0 .3.1.5.1v-3.5l-2.2-.4V287l5.8-.5h.1l.8.7v16.7h1.2v1.7c-.2 0-.4.1-.7.1-.3 0-.6.1-.9.1s-.6.1-.9.1h-.8c-.3 0-.6 0-.8-.1-.2 0-.4-.1-.5-.2s-.3-.2-.3-.4-.1-.4-.1-.7v-.5c-.2.3-.4.5-.7.8-.3.3-.6.4-.9.6-.3.2-.7.3-1 .4-.6-.1-.9 0-1.3 0zm1.7-2.3c.4 0 .7-.1.9-.2.2-.1.4-.3.6-.5v-8.1c-.1-.1-.2-.3-.4-.3-.2-.1-.4-.1-.7-.1-.3 0-.6.1-.9.2-.3.2-.5.4-.7.8s-.4.9-.5 1.5c-.1.6-.2 1.4-.2 2.3 0 .8 0 1.4.1 2s.2 1 .4 1.4c.2.4.4.6.6.8.2.1.5.2.8.2zM223.4 304l1.3-.2v-8.5l-1.5-.5v-2.1l5.3-.6h.1l.8.5v11.1l1.2.2v1.8h-7.2V304zm2.4-13.3c-.3-.1-.5-.3-.7-.5-.2-.2-.4-.4-.5-.7s-.2-.5-.2-.9.1-.7.2-1c.1-.3.3-.6.5-.8.2-.2.5-.4.8-.5.3-.1.7-.2 1.1-.2.4 0 .8.1 1.1.2.3.1.6.3.8.5.2.2.4.4.5.7s.2.5.2.9-.1.7-.2 1c-.1.3-.3.6-.5.8-.2.2-.5.4-.9.5-.3.1-.7.2-1.2.2-.4-.1-.7-.1-1-.2zM232.3 304l1.2-.2v-8.2l-1.3-.4V293l4.8-.6h.1l.7.6v1.3c.2-.2.5-.5.9-.7.4-.2.7-.4 1.1-.6s.8-.3 1.3-.4 1-.2 1.5-.2c.7 0 1.3.1 1.8.3.5.2.9.5 1.2.8.3.4.5.9.7 1.6.1.6.2 1.4.2 2.4v6.3l1.2.2v1.7h-6.9V304l1-.2v-6.3c0-.5 0-.9-.1-1.2 0-.3-.1-.6-.2-.8s-.3-.3-.5-.4-.4-.1-.7-.1c-.2 0-.4 0-.6.1s-.4.1-.5.2c-.2.1-.3.2-.4.3l-.3.3v7.9l1.2.2v1.7h-7.1V304h-.3zM248.5 301.6c0-.7.2-1.3.5-1.9.3-.6.8-1 1.4-1.4.6-.4 1.4-.7 2.4-.9 1-.2 2.1-.3 3.4-.3v-.3c0-.3 0-.5-.1-.7-.1-.2-.2-.3-.3-.5-.2-.1-.4-.2-.7-.3s-.7-.1-1.1-.1c-.5 0-.9 0-1.3.1-.4 0-.8.1-1.1.2-.3.1-.6.1-.9.2s-.5.3-.7.3l-.9-1.7c.2-.1.4-.3.8-.5s.8-.4 1.4-.6c.5-.2 1.1-.4 1.8-.5.7-.1 1.4-.2 2.2-.2 1 0 1.9.1 2.5.3.7.2 1.2.5 1.6.8.4.3.7.9.9 1.5.2.6.3 1.3.3 2.2v6.5h1.2v1.7c-.1 0-.4.1-.6.1-.3 0-.6.1-.9.1s-.7.1-1 .1h-.9c-.4 0-.6 0-.9-.1-.2-.1-.4-.1-.5-.2-.1-.1-.2-.3-.2-.4 0-.1-.1-.4-.1-.7v-.4c-.2.2-.4.4-.6.7-.2.3-.5.4-.8.6s-.7.3-1.1.4-.8.2-1.3.2c-.6 0-1.1-.1-1.6-.3-.5-.2-.9-.5-1.3-.8-.4-.4-.7-.8-.9-1.3-.4-.6-.6-1.2-.6-1.9zm4.9-.5c0 .3 0 .6.1.9s.2.5.3.7c.1.2.3.3.5.5.2.1.4.2.6.2s.5-.1.7-.2c.3-.1.5-.3.6-.5V299c-.5 0-1 .1-1.4.2-.4.1-.7.3-.9.5-.2.2-.4.4-.5.7v.7zM262.5 304l1.3-.2v-15l-1.6-.4v-1.7l5.3-.6h.1l.8.6v17l1.3.2v1.8h-7.2V304z"/></g><g><path class="st5" d="M-16.8 505.3l2.9-.6 11.2-34.4H8.6l11.2 34.4 2.7.6v3.9H4.7v-3.9l3.4-.6-1.5-5.5H-4.6l-1.4 5.7 3.9.5v3.9h-14.7v-4zm22.2-10.6l-4-14.8-.6-3.2-.6 3.2-3.8 14.8h9zM24.1 505.4l2.6-.5V487l-2.8-1v-4.8l10.6-1.3h.1l1.5 1.2v1.7L36 484c.5-.5 1.2-1 1.9-1.5s1.5-.9 2.4-1.3c.9-.4 1.8-.7 2.8-.9 1-.2 2.1-.3 3.2-.3 1.5 0 2.8.2 3.8.6 1.1.4 1.9 1 2.6 1.9.7.9 1.2 2 1.5 3.4.3 1.4.5 3.1.5 5.2v13.8l2.6.5v3.8h-15v-3.8l2.2-.5v-13.8c0-1.1-.1-2-.2-2.7-.1-.7-.3-1.3-.5-1.7-.2-.4-.6-.7-1-.9-.4-.2-.9-.3-1.5-.3-.5 0-1 .1-1.4.2-.4.1-.8.3-1.2.5s-.7.4-1 .6c-.3.2-.5.4-.7.6v17.4l2.6.5v3.8H24.1v-3.7zM61 505.4l2.6-.5V487l-2.8-1v-4.8l10.6-1.3h.1l1.5 1.2v1.7l-.1 1.2c.5-.5 1.2-1 1.9-1.5s1.5-.9 2.4-1.3c.9-.4 1.8-.7 2.8-.9 1-.2 2.1-.3 3.2-.3 1.5 0 2.8.2 3.8.6 1.1.4 1.9 1 2.6 1.9.7.9 1.2 2 1.5 3.4.3 1.4.5 3.1.5 5.2v13.8l2.6.5v3.8h-15v-3.8l2.2-.5v-13.8c0-1.1-.1-2-.2-2.7-.1-.7-.3-1.3-.5-1.7-.2-.4-.6-.7-1-.9-.4-.2-.9-.3-1.5-.3-.5 0-1 .1-1.4.2-.4.1-.8.3-1.2.5s-.7.4-1 .6c-.3.2-.5.4-.7.6v17.4l2.6.5v3.8H61v-3.7zM97.6 505.3l2.9-.5v-18.5l-3.3-1v-4.5l11.7-1.4h.1l1.7 1.2v24.2l2.7.5v3.9H97.6v-3.9zm5.3-29.1c-.6-.2-1.2-.6-1.6-1-.5-.4-.8-.9-1.1-1.5-.3-.6-.4-1.2-.4-1.9 0-.8.1-1.5.4-2.2.3-.7.6-1.3 1.1-1.8.5-.5 1.1-.9 1.8-1.2.7-.3 1.5-.4 2.4-.4.9 0 1.7.1 2.3.4.7.2 1.2.6 1.7 1s.8.9 1 1.5.3 1.2.3 1.9c0 .8-.1 1.5-.4 2.2-.2.7-.6 1.3-1.1 1.8-.5.5-1.1.9-1.9 1.2-.8.3-1.6.4-2.6.4-.6 0-1.3-.1-1.9-.4zM115.9 484.4l-1.9-.6V480h16.2v3.8l-3 .6 4 13 .9 3.8.7-3.8 3.9-13-3.1-.6V480h12.9v3.8l-2.8.6-9.3 24.7h-8.2l-10.3-24.7zM146.2 494.8c0-2.4.3-4.5 1-6.3s1.7-3.4 2.9-4.6c1.3-1.2 2.8-2.2 4.6-2.8 1.8-.6 3.8-1 6.1-1 2 0 3.7.2 5.2.7 1.5.5 2.7 1.1 3.7 2 1 .8 1.7 1.9 2.2 3.1.5 1.2.8 2.6.8 4.1 0 1.1 0 2.1-.1 3-.1.8-.2 1.6-.3 2.2h-15.6c.3 2.8.9 4.8 2.1 6.1 1.1 1.3 2.7 1.9 4.8 1.9.7 0 1.3-.1 2-.2s1.4-.3 2-.5c.6-.2 1.2-.4 1.8-.7.6-.2 1-.4 1.4-.7l1.7 3.6c-.4.4-.9.9-1.7 1.4-.8.5-1.7 1-2.7 1.5s-2.2.8-3.4 1.2a16 16 0 0 1-3.9.5c-2.7 0-4.9-.4-6.8-1.1-1.8-.7-3.3-1.7-4.5-3-1.1-1.3-2-2.8-2.5-4.6-.6-1.8-.8-3.7-.8-5.8zm16.9-3.5v-.4-.5-.5-.4c0-.9 0-1.6-.1-2.3-.1-.7-.2-1.2-.5-1.7-.2-.5-.5-.8-.9-1.1-.4-.2-.9-.4-1.4-.4-.5 0-1 .1-1.5.3-.4.2-.8.5-1.2 1-.3.5-.6 1.3-.8 2.2-.2.9-.3 2.2-.3 3.8h6.7zM176.2 505.4l2.8-.5v-18l-2.8-1v-4.6l9.4-1.2h.1l1.7 1.2v1.4l-.2 4.3h.2c.2-.6.5-1.4 1-2.2.5-.8 1.2-1.6 1.9-2.3.8-.7 1.7-1.3 2.7-1.8s2.1-.7 3.3-.7c.5 0 1 0 1.4.1s.7.2.9.3V491c-.3-.2-.5-.4-.8-.6s-.6-.4-1-.5-.8-.3-1.3-.4-1.1-.1-1.8-.1c-1.1 0-2.1.1-2.9.4s-1.4.5-1.8.8V505l5.3.5v3.7H176v-3.8zM202 500h5.7l1.5 4.1c.1.2.3.3.5.5s.6.3.9.4c.4.1.7.2 1.1.3.4.1.8.1 1.2.1.6 0 1.1-.1 1.6-.2s.8-.3 1.1-.6c.3-.2.5-.5.7-.9.2-.3.2-.7.2-1 0-.6-.2-1.2-.7-1.6-.5-.5-1.1-.9-1.9-1.3-.8-.4-1.7-.8-2.7-1.2-1-.4-2.1-.9-3.1-1.4-1-.5-1.8-1-2.6-1.5-.8-.6-1.5-1.2-2-1.9-.6-.7-1-1.5-1.3-2.4s-.4-1.9-.4-2.9c0-1.2.3-2.2.8-3.3.5-1 1.3-1.9 2.3-2.7 1-.8 2.3-1.4 3.9-1.8s3.3-.7 5.4-.7h3.8c1.1 0 2.1.1 2.9.1.8 0 1.6.1 2.2.1h1.7v7.4h-5.5l-1.5-3.1c-.1-.2-.5-.4-1-.6s-1.2-.3-2-.3c-1.2 0-2.1.2-2.8.7-.6.5-1 1.1-1 1.9 0 .6.2 1.1.5 1.5.4.4.8.8 1.4 1.2.6.4 1.3.7 2.1 1 .8.3 1.6.7 2.5 1 1.1.5 2.2 1 3.2 1.5 1.1.5 2 1.2 2.9 1.9.9.7 1.5 1.6 2.1 2.5s.8 2.1.8 3.4c0 1.1-.2 2.2-.7 3.2-.5 1-1.2 1.9-2.2 2.7-1 .8-2.3 1.4-3.9 1.9s-3.6.7-5.9.7c-1.6 0-3-.1-4.3-.3-1.3-.2-2.4-.4-3.4-.6-1-.2-1.8-.5-2.5-.7-.7-.2-1.3-.4-1.8-.4V500zM228.9 500.1c0-1.5.3-2.9 1-4.1.7-1.2 1.7-2.2 3.1-3.1 1.4-.8 3.1-1.5 5.3-1.9 2.1-.5 4.6-.7 7.4-.7v-.6c0-.6-.1-1.1-.2-1.5-.1-.4-.3-.8-.7-1-.3-.3-.8-.5-1.4-.6-.6-.1-1.4-.2-2.5-.2-1 0-2 .1-2.9.2s-1.7.2-2.5.4-1.4.3-2 .5-1.1.3-1.5.5l-2-3.8c.4-.3.9-.6 1.8-1.1.8-.5 1.8-.9 3-1.4 1.2-.4 2.5-.8 4-1.1s3.1-.5 4.8-.5c2.2 0 4.1.2 5.5.6 1.5.4 2.6 1 3.5 1.8.9.8 1.5 1.9 1.9 3.2.4 1.3.5 2.9.5 4.7v14.2h2.6v3.8c-.3.1-.8.1-1.4.2s-1.3.2-2 .2c-.7.1-1.5.1-2.2.2s-1.5.1-2.1.1c-.8 0-1.4-.1-1.9-.2s-.9-.3-1.1-.5c-.3-.2-.4-.6-.5-1-.1-.4-.1-.9-.1-1.5v-1c-.3.5-.8 1-1.3 1.5s-1.1.9-1.8 1.3-1.5.7-2.4 1c-.9.2-1.8.4-2.9.4-1.2 0-2.4-.2-3.4-.6-1.1-.4-2-1-2.8-1.8-.8-.8-1.5-1.7-1.9-2.8-.6-1-.9-2.3-.9-3.8zm10.6-1.1c0 .7.1 1.3.2 1.9s.4 1.1.6 1.5.6.8 1 1c.4.2.9.3 1.4.3.5 0 1-.1 1.6-.4.6-.3 1-.6 1.4-1v-8.1c-1.2 0-2.2.1-3 .4-.8.3-1.4.6-1.9 1.1-.5.5-.8 1-1 1.5-.2.6-.3 1.2-.3 1.8zM260.1 505.4l2.8-.5v-18l-2.8-1v-4.6l9.4-1.2h.1l1.7 1.2v1.4l-.2 4.3h.2c.2-.6.5-1.4 1-2.2.5-.8 1.2-1.6 1.9-2.3.8-.7 1.7-1.3 2.7-1.8s2.1-.7 3.3-.7c.5 0 1 0 1.4.1s.7.2.9.3V491c-.3-.2-.5-.4-.8-.6s-.6-.4-1-.5-.8-.3-1.3-.4-1.1-.1-1.8-.1c-1.1 0-2.1.1-2.9.4s-1.4.5-1.8.8V505l5.3.5v3.7h-18.3v-3.8z"/><path class="st5" d="M287.5 514.5c.3.1.7.2 1.1.3.4.1.8.1 1.2.2.4 0 .8.1 1.1.1 1 0 1.9-.2 2.6-.5.7-.3 1.3-.8 1.8-1.3s.9-1.1 1.3-1.8c.3-.7.7-1.4 1-2.2h-3.3l-9.8-24.7-2.2-.6v-3.8h16.8v3.8l-3.4.6 3.9 13.2 1.1 4.1.8-4.1 3.7-13.2-3-.6v-3.8h12.5v3.8l-2.4.6c-.3.8-.6 1.8-1 3-.4 1.1-.8 2.4-1.3 3.7-.5 1.3-.9 2.7-1.4 4.1-.5 1.4-1 2.8-1.5 4.1-.5 1.3-.9 2.6-1.4 3.8-.4 1.2-.8 2.3-1.1 3.2-.3.9-.6 1.7-.8 2.3-.2.6-.3.9-.4 1-.7 2-1.5 3.8-2.3 5.3-.8 1.5-1.7 2.8-2.6 3.9-1 1-2 1.8-3.2 2.4-1.2.5-2.6.8-4.1.8H290c-.4 0-.9 0-1.3-.1s-.8-.1-1.2-.2c-.4-.1-.6-.2-.9-.3v-7.2c.3-.1.6 0 .9.1z"/><g><path class="st4" d="M-16.8 505.3l2.9-.6 11.2-34.4H8.6l11.2 34.4 2.7.6v3.9H4.7v-3.9l3.4-.6-1.5-5.5H-4.6l-1.4 5.7 3.9.5v3.9h-14.7v-4zm22.2-10.6l-4-14.8-.6-3.2-.6 3.2-3.8 14.8h9zM24.1 505.4l2.6-.5V487l-2.8-1v-4.8l10.6-1.3h.1l1.5 1.2v1.7L36 484c.5-.5 1.2-1 1.9-1.5s1.5-.9 2.4-1.3c.9-.4 1.8-.7 2.8-.9 1-.2 2.1-.3 3.2-.3 1.5 0 2.8.2 3.8.6 1.1.4 1.9 1 2.6 1.9.7.9 1.2 2 1.5 3.4.3 1.4.5 3.1.5 5.2v13.8l2.6.5v3.8h-15v-3.8l2.2-.5v-13.8c0-1.1-.1-2-.2-2.7-.1-.7-.3-1.3-.5-1.7-.2-.4-.6-.7-1-.9-.4-.2-.9-.3-1.5-.3-.5 0-1 .1-1.4.2-.4.1-.8.3-1.2.5s-.7.4-1 .6c-.3.2-.5.4-.7.6v17.4l2.6.5v3.8H24.1v-3.7zM61 505.4l2.6-.5V487l-2.8-1v-4.8l10.6-1.3h.1l1.5 1.2v1.7l-.1 1.2c.5-.5 1.2-1 1.9-1.5s1.5-.9 2.4-1.3c.9-.4 1.8-.7 2.8-.9 1-.2 2.1-.3 3.2-.3 1.5 0 2.8.2 3.8.6 1.1.4 1.9 1 2.6 1.9.7.9 1.2 2 1.5 3.4.3 1.4.5 3.1.5 5.2v13.8l2.6.5v3.8h-15v-3.8l2.2-.5v-13.8c0-1.1-.1-2-.2-2.7-.1-.7-.3-1.3-.5-1.7-.2-.4-.6-.7-1-.9-.4-.2-.9-.3-1.5-.3-.5 0-1 .1-1.4.2-.4.1-.8.3-1.2.5s-.7.4-1 .6c-.3.2-.5.4-.7.6v17.4l2.6.5v3.8H61v-3.7zM97.6 505.3l2.9-.5v-18.5l-3.3-1v-4.5l11.7-1.4h.1l1.7 1.2v24.2l2.7.5v3.9H97.6v-3.9zm5.3-29.1c-.6-.2-1.2-.6-1.6-1-.5-.4-.8-.9-1.1-1.5-.3-.6-.4-1.2-.4-1.9 0-.8.1-1.5.4-2.2.3-.7.6-1.3 1.1-1.8.5-.5 1.1-.9 1.8-1.2.7-.3 1.5-.4 2.4-.4.9 0 1.7.1 2.3.4.7.2 1.2.6 1.7 1s.8.9 1 1.5.3 1.2.3 1.9c0 .8-.1 1.5-.4 2.2-.2.7-.6 1.3-1.1 1.8-.5.5-1.1.9-1.9 1.2-.8.3-1.6.4-2.6.4-.6 0-1.3-.1-1.9-.4zM115.9 484.4l-1.9-.6V480h16.2v3.8l-3 .6 4 13 .9 3.8.7-3.8 3.9-13-3.1-.6V480h12.9v3.8l-2.8.6-9.3 24.7h-8.2l-10.3-24.7zM146.2 494.8c0-2.4.3-4.5 1-6.3s1.7-3.4 2.9-4.6c1.3-1.2 2.8-2.2 4.6-2.8 1.8-.6 3.8-1 6.1-1 2 0 3.7.2 5.2.7 1.5.5 2.7 1.1 3.7 2 1 .8 1.7 1.9 2.2 3.1.5 1.2.8 2.6.8 4.1 0 1.1 0 2.1-.1 3-.1.8-.2 1.6-.3 2.2h-15.6c.3 2.8.9 4.8 2.1 6.1 1.1 1.3 2.7 1.9 4.8 1.9.7 0 1.3-.1 2-.2s1.4-.3 2-.5c.6-.2 1.2-.4 1.8-.7.6-.2 1-.4 1.4-.7l1.7 3.6c-.4.4-.9.9-1.7 1.4-.8.5-1.7 1-2.7 1.5s-2.2.8-3.4 1.2a16 16 0 0 1-3.9.5c-2.7 0-4.9-.4-6.8-1.1-1.8-.7-3.3-1.7-4.5-3-1.1-1.3-2-2.8-2.5-4.6-.6-1.8-.8-3.7-.8-5.8zm16.9-3.5v-.4-.5-.5-.4c0-.9 0-1.6-.1-2.3-.1-.7-.2-1.2-.5-1.7-.2-.5-.5-.8-.9-1.1-.4-.2-.9-.4-1.4-.4-.5 0-1 .1-1.5.3-.4.2-.8.5-1.2 1-.3.5-.6 1.3-.8 2.2-.2.9-.3 2.2-.3 3.8h6.7zM176.2 505.4l2.8-.5v-18l-2.8-1v-4.6l9.4-1.2h.1l1.7 1.2v1.4l-.2 4.3h.2c.2-.6.5-1.4 1-2.2.5-.8 1.2-1.6 1.9-2.3.8-.7 1.7-1.3 2.7-1.8s2.1-.7 3.3-.7c.5 0 1 0 1.4.1s.7.2.9.3V491c-.3-.2-.5-.4-.8-.6s-.6-.4-1-.5-.8-.3-1.3-.4-1.1-.1-1.8-.1c-1.1 0-2.1.1-2.9.4s-1.4.5-1.8.8V505l5.3.5v3.7H176v-3.8zM202 500h5.7l1.5 4.1c.1.2.3.3.5.5s.6.3.9.4c.4.1.7.2 1.1.3.4.1.8.1 1.2.1.6 0 1.1-.1 1.6-.2s.8-.3 1.1-.6c.3-.2.5-.5.7-.9.2-.3.2-.7.2-1 0-.6-.2-1.2-.7-1.6-.5-.5-1.1-.9-1.9-1.3-.8-.4-1.7-.8-2.7-1.2-1-.4-2.1-.9-3.1-1.4-1-.5-1.8-1-2.6-1.5-.8-.6-1.5-1.2-2-1.9-.6-.7-1-1.5-1.3-2.4s-.4-1.9-.4-2.9c0-1.2.3-2.2.8-3.3.5-1 1.3-1.9 2.3-2.7 1-.8 2.3-1.4 3.9-1.8s3.3-.7 5.4-.7h3.8c1.1 0 2.1.1 2.9.1.8 0 1.6.1 2.2.1h1.7v7.4h-5.5l-1.5-3.1c-.1-.2-.5-.4-1-.6s-1.2-.3-2-.3c-1.2 0-2.1.2-2.8.7-.6.5-1 1.1-1 1.9 0 .6.2 1.1.5 1.5.4.4.8.8 1.4 1.2.6.4 1.3.7 2.1 1 .8.3 1.6.7 2.5 1 1.1.5 2.2 1 3.2 1.5 1.1.5 2 1.2 2.9 1.9.9.7 1.5 1.6 2.1 2.5s.8 2.1.8 3.4c0 1.1-.2 2.2-.7 3.2-.5 1-1.2 1.9-2.2 2.7-1 .8-2.3 1.4-3.9 1.9s-3.6.7-5.9.7c-1.6 0-3-.1-4.3-.3-1.3-.2-2.4-.4-3.4-.6-1-.2-1.8-.5-2.5-.7-.7-.2-1.3-.4-1.8-.4V500zM228.9 500.1c0-1.5.3-2.9 1-4.1.7-1.2 1.7-2.2 3.1-3.1 1.4-.8 3.1-1.5 5.3-1.9 2.1-.5 4.6-.7 7.4-.7v-.6c0-.6-.1-1.1-.2-1.5-.1-.4-.3-.8-.7-1-.3-.3-.8-.5-1.4-.6-.6-.1-1.4-.2-2.5-.2-1 0-2 .1-2.9.2s-1.7.2-2.5.4-1.4.3-2 .5-1.1.3-1.5.5l-2-3.8c.4-.3.9-.6 1.8-1.1.8-.5 1.8-.9 3-1.4 1.2-.4 2.5-.8 4-1.1s3.1-.5 4.8-.5c2.2 0 4.1.2 5.5.6 1.5.4 2.6 1 3.5 1.8.9.8 1.5 1.9 1.9 3.2.4 1.3.5 2.9.5 4.7v14.2h2.6v3.8c-.3.1-.8.1-1.4.2s-1.3.2-2 .2c-.7.1-1.5.1-2.2.2s-1.5.1-2.1.1c-.8 0-1.4-.1-1.9-.2s-.9-.3-1.1-.5c-.3-.2-.4-.6-.5-1-.1-.4-.1-.9-.1-1.5v-1c-.3.5-.8 1-1.3 1.5s-1.1.9-1.8 1.3-1.5.7-2.4 1c-.9.2-1.8.4-2.9.4-1.2 0-2.4-.2-3.4-.6-1.1-.4-2-1-2.8-1.8-.8-.8-1.5-1.7-1.9-2.8-.6-1-.9-2.3-.9-3.8zm10.6-1.1c0 .7.1 1.3.2 1.9s.4 1.1.6 1.5.6.8 1 1c.4.2.9.3 1.4.3.5 0 1-.1 1.6-.4.6-.3 1-.6 1.4-1v-8.1c-1.2 0-2.2.1-3 .4-.8.3-1.4.6-1.9 1.1-.5.5-.8 1-1 1.5-.2.6-.3 1.2-.3 1.8zM260.1 505.4l2.8-.5v-18l-2.8-1v-4.6l9.4-1.2h.1l1.7 1.2v1.4l-.2 4.3h.2c.2-.6.5-1.4 1-2.2.5-.8 1.2-1.6 1.9-2.3.8-.7 1.7-1.3 2.7-1.8s2.1-.7 3.3-.7c.5 0 1 0 1.4.1s.7.2.9.3V491c-.3-.2-.5-.4-.8-.6s-.6-.4-1-.5-.8-.3-1.3-.4-1.1-.1-1.8-.1c-1.1 0-2.1.1-2.9.4s-1.4.5-1.8.8V505l5.3.5v3.7h-18.3v-3.8z"/><path class="st4" d="M287.5 514.5c.3.1.7.2 1.1.3.4.1.8.1 1.2.2.4 0 .8.1 1.1.1 1 0 1.9-.2 2.6-.5.7-.3 1.3-.8 1.8-1.3s.9-1.1 1.3-1.8c.3-.7.7-1.4 1-2.2h-3.3l-9.8-24.7-2.2-.6v-3.8h16.8v3.8l-3.4.6 3.9 13.2 1.1 4.1.8-4.1 3.7-13.2-3-.6v-3.8h12.5v3.8l-2.4.6c-.3.8-.6 1.8-1 3-.4 1.1-.8 2.4-1.3 3.7-.5 1.3-.9 2.7-1.4 4.1-.5 1.4-1 2.8-1.5 4.1-.5 1.3-.9 2.6-1.4 3.8-.4 1.2-.8 2.3-1.1 3.2-.3.9-.6 1.7-.8 2.3-.2.6-.3.9-.4 1-.7 2-1.5 3.8-2.3 5.3-.8 1.5-1.7 2.8-2.6 3.9-1 1-2 1.8-3.2 2.4-1.2.5-2.6.8-4.1.8H290c-.4 0-.9 0-1.3-.1s-.8-.1-1.2-.2c-.4-.1-.6-.2-.9-.3v-7.2c.3-.1.6 0 .9.1z"/></g></g><path class="st2" d="M116.5 468.7h17.4l9.4-13.4-29.6.7zM17.6 469h18.9l11.2-16.7-28.7 10z"/></svg>