<?xml version="1.0" encoding="utf-8"?>
<!-- Generator: Adobe Illustrator 19.1.0, SVG Export Plug-In . SVG Version: 6.00 Build 0)  -->
<svg version="1.1" id="Layer_1" xmlns="http://www.w3.org/2000/svg" xmlns:xlink="http://www.w3.org/1999/xlink" x="0px" y="0px"
	 width="342px" height="184.9px" viewBox="-227.2 210.2 342 184.9" style="enable-background:new -227.2 210.2 342 184.9;"
	 xml:space="preserve">
<style type="text/css">
	.st0{fill:#FFFFFF;}
	.st1{fill:#CE6828;}
	.st2{fill:#C42A2A;}
	.st3{fill:#231F20;}
</style>
<path class="st0" d="M98.7,276.7h3.4l-7.3-46l-85.8,0l6.9-17.4l-64.4,9.7c-5.2-1-10.7-1.5-16.5-1.5c0,0,0,0,0,0
	c-28.5,0-43.4,11.4-51,21.8c0.7-5.8,1.1-9.3,1.1-9.4l1.8-14.9l-54-0.7l-4,6.9c-0.1,0.1-3.4,5.7-9.1,11.3
	c-5.7,5.6-13.9,11.1-23.5,11.1h-13.5l0,42l12.2,1.2c3.7,0.4,11.2,0.9,18.2,0.3l-23.4,98.7l88.9,0l0-0.3l126.8,0l0-0.3l42.4,0l0.6,0
	c1.6-0.2,16.4-1.7,31.5-11.3c14.4-9.2,31.6-27.5,31.7-62.4C111.5,297,105.4,284.7,98.7,276.7z M-152.4,245.4l2.9,0l-5,2.6
	C-153.7,247.2-153,246.3-152.4,245.4z"/>
<g>
	<g>
		<path class="st1" d="M-49,236.7l43.6-6.5l-12.5,31.2c0,0-11.3-2.8-19.1-10.7S-49,236.7-49,236.7z"/>
		<path class="st2" d="M7.8,295c0,0,3.4-14,3.4-28.4c0-14.4-6.1-22.4-6.1-22.4l78.1,0l3,19l-52.3,0l0,6.8c0,0,64.1-10.2,64.1,45.5
			c0,55.7-50.8,60.3-50.8,60.3l-31.1,0l0-43.2c0,0,31.5,9.5,37.2-15.5S31.5,271.3,7.8,295z"/>
		<g>
			<path class="st2" d="M-65,234.9c-47,0-47,35.3-47,35.3c0,43.6,39.4,25,39.4,25s-9.5-9.1-9.5-20.1c0-7.4,3.8-12.3,9.5-14.8
				l23.6-23.6C-53.7,235.6-59,235-65,234.9z"/>
			<path class="st3" d="M-49,236.7l-23.6,23.6c2.8-1.2,6.2-1.8,9.8-1.8c11,0,18.6,9.1,18.6,18.6c0,4.5,0.4,8.3-3,13.6h0l29.3-29.3
				C-22,252.4-30.7,241-49,236.7z M-44.8,257c-3.2,0-5.9-2.6-5.9-5.9c0-3.2,2.6-5.9,5.9-5.9c3.2,0,5.9,2.6,5.9,5.9
				C-38.9,254.3-41.5,257-44.8,257z"/>
			<circle class="st0" cx="-44.8" cy="251.1" r="5.9"/>
		</g>
	</g>
	<g>
		<path class="st2" d="M-6.7,333.9L-7.8,376l-67.6,0h-17.4l-19.6,0c0,0-1.9-36,34.1-59.5c18.9-12.4,27.4-20,31.2-25.8l29.3-29.3
			c3.1,6.7,3.6,11.9,3.6,11.9S-9.7,301.7-26,318c-16.3,16.3-21.6,21.2-21.6,21.2s9.1,4.5,20.9,4.5C-15,343.8-6.7,333.9-6.7,333.9z"
			/>
	</g>
</g>
<path class="st2" d="M-136,291.4c-4.2,30.3,0,84.9,0,84.9l-36.8,0h-20.5l25.1-105.8c0,0-7.2,3.8-13.6,6.1c-6.5,2.3-22,0.8-22,0.8
	l0-16.3c27.7,0,44.4-29.2,44.4-29.2l31.1,0.4C-128.4,232.2-131.8,261.1-136,291.4z"/>
</svg>
