<?xml version="1.0" encoding="utf-8"?>
<!-- Generator: Adobe Illustrator 19.1.0, SVG Export Plug-In . SVG Version: 6.00 Build 0)  -->
<svg version="1.1" id="Layer_1" xmlns="http://www.w3.org/2000/svg" xmlns:xlink="http://www.w3.org/1999/xlink" x="0px" y="0px"
	 width="449.7px" height="330px" viewBox="0 0 449.7 330" style="enable-background:new 0 0 449.7 330;" xml:space="preserve">
<style type="text/css">
	.st0{fill:#F7F2D0;}
	.st1{fill:#CF6928;}
	.st2{fill:#C42A2A;}
	.st3{fill:#FFFFFF;}
	.st4{fill:#662121;}
</style>
<polygon class="st0" points="379.1,108.8 390.6,97.8 417.3,100.9 408.4,120.7 383.6,121.8 "/>
<g>
	<path class="st0" d="M395.6,129.2c-3.6,0-6.4-1-8.3-2.9c-1.9-1.9-2.9-4.5-2.9-7.8v-12.1h-2.8V96l2.5-1.2c0.3-0.2,0.6-0.3,0.9-0.4
		c0.3-0.1,0.5-0.2,0.8-0.4c0.2-0.1,0.3-0.1,0.5-0.2c0.1-0.1,0.2-0.4,0.4-0.9l0.1-0.2c0.3-0.6,0.5-1.2,0.7-1.8
		c0.2-0.8,0.5-1.6,0.8-2.5l0.9-3.2h13.1l0.4,7.9h6.6v13.5H403v7.3c0,0.1,0,0.3,0,0.4c0.1,0,0.2,0,0.3-0.1l0.5-0.1h3.8l3.3,9.4
		l-2.4,2c-0.7,0.6-1.6,1.1-2.6,1.6c-0.9,0.4-1.9,0.8-3,1.2c-1.1,0.3-2.2,0.6-3.4,0.8C398.2,129.1,396.9,129.2,395.6,129.2z
		 M393.4,99.4v19.1c0,0.9,0.2,1.3,0.3,1.4c0.1,0,0.4,0.2,1.1,0.2c-0.1-0.1-0.1-0.2-0.1-0.4c-0.3-0.8-0.5-1.7-0.6-2.9
		c0-0.8-0.1-1.8-0.1-3.2V99.6l-0.1-1.1c0,0,0,0,0,0.1C393.7,98.8,393.6,99.1,393.4,99.4z"/>
	<path class="st0" d="M442.8,129.2h-40.3v-11.7l2.4-0.5V94l-3.2-0.7v-11l15.5-1.8h1.5l4.6,3.4l0,9.5c0.1,0,0.1,0,0.2,0
		c1.3-0.3,2.7-0.4,4.1-0.4c2.2,0,4,0.3,5.6,1c1.8,0.8,3.3,1.9,4.4,3.5c1,1.4,1.6,3,2,5c0.3,1.6,0.4,3.3,0.4,5.3v9.2l2.8,0.5V129.2z
		 M430.6,120.2h0.5v-12.5c0-1.4-0.1-2.7-0.3-3.7c-0.1-0.8-0.4-1.2-0.5-1.5c-0.1-0.1-0.2-0.2-0.5-0.3c0,0,0,0,0,0
		c0.3,0.8,0.5,1.6,0.7,2.5c0.1,0.9,0.2,1.9,0.2,3V120.2z M413.9,120.2h0.7v-10.1l-0.7,0.6V120.2z M413.9,89.9v10l0.4-3.8l0-6.3
		L413.9,89.9z"/>
</g>
<rect x="326.6" y="269.3" class="st0" width="29" height="8"/>
<path class="st0" d="M369.1,241.3h17.5v8.8h-2.8c0,0-6.8,23-10.2,29.8s-7,8.5-13.8,8.5s-9,0-9,0v-14.2h-15.5L369.1,241.3z"/>
<polyline class="st0" points="94.3,250.3 88.3,264.3 84.6,264.3 84.6,276.3 335.1,277 "/>
<polygon class="st0" points="313.7,52.2 353.7,49.7 353.7,80.3 277.7,80.3 "/>
<circle class="st0" cx="229.2" cy="164.9" r="163.5"/>
<g>
	<path class="st1" d="M240.4,97.4l43.6-6.5L271.5,122c0,0-11.3-2.8-19.1-10.7S240.4,97.4,240.4,97.4z"/>
	<path class="st2" d="M297.1,155.7c0,0,3.4-14,3.4-28.4s-6.1-22.4-6.1-22.4l78.1,0l3,19l-52.3,0l0,6.8c0,0,64.1-10.2,64.1,45.5
		c0,55.7-50.8,60.3-50.8,60.3l-31.1,0l0-43.2c0,0,31.5,9.5,37.2-15.5S320.8,132,297.1,155.7z"/>
	<g>
		<path class="st2" d="M224.3,95.6c-47,0-47,35.3-47,35.3c0,43.6,39.4,25,39.4,25s-9.5-9.1-9.5-20.1c0-7.4,3.8-12.3,9.5-14.8
			l23.6-23.6C235.7,96.3,230.3,95.6,224.3,95.6z"/>
		<path d="M240.4,97.4L216.7,121c2.8-1.2,6.2-1.8,9.8-1.8c11,0,18.6,9.1,18.6,18.6c0,4.5,0.4,8.3-3,13.6l29.3-29.3
			C267.4,113.1,258.6,101.7,240.4,97.4z M244.6,117.6c-3.2,0-5.9-2.6-5.9-5.9c0-3.2,2.6-5.9,5.9-5.9c3.2,0,5.9,2.6,5.9,5.9
			C250.5,115,247.8,117.6,244.6,117.6z"/>
		<circle class="st3" cx="244.6" cy="111.8" r="5.9"/>
	</g>
</g>
<g>
	<path class="st2" d="M387.9,101.8l-2.8,0l0-3.1c0.3-0.1,0.6-0.3,0.8-0.4c0.2-0.1,0.5-0.2,0.8-0.3c0.3-0.1,0.5-0.2,0.8-0.3
		c0.2-0.1,0.5-0.2,0.8-0.4c0.3-0.3,0.6-0.7,0.9-1.2c0.3-0.4,0.6-1,0.8-1.7c0.3-0.7,0.6-1.4,0.9-2.2c0.3-0.8,0.5-1.7,0.8-2.7l5.4,0
		l0.3,7.9l6.4,0l0,4.5l-6.3,0l0,11.8c0,1.2,0,2.2,0.1,2.9c0,0.7,0.1,1.2,0.3,1.6c0.1,0.4,0.3,0.6,0.6,0.7c0.3,0.1,0.6,0.1,1.1,0.1
		l0,0c0.8,0,1.5-0.1,2.1-0.2c0.6-0.1,1.2-0.2,1.7-0.4l0,0l1.2,3.4c-0.5,0.4-1,0.7-1.7,1.1c-0.7,0.3-1.5,0.6-2.3,0.9
		s-1.8,0.5-2.8,0.6c-1,0.2-2,0.2-3.1,0.2l0,0c-2.3,0-4-0.5-5.1-1.6c-1-1.1-1.6-2.6-1.6-4.6L387.9,101.8z"/>
	<path class="st2" d="M406,121.1l2.4-0.5l0.1-30.3l-3.2-0.7l0-3.4l10.8-1.2l0.1,0l1.6,1.2l0,10.2l-0.5,4.4c0.4-0.4,0.9-0.7,1.5-1.1
		c0.6-0.4,1.3-0.8,2.1-1.1c0.8-0.3,1.6-0.6,2.6-0.8c1-0.2,2-0.3,3.1-0.3c1.6,0,2.9,0.2,3.9,0.6c1,0.4,1.8,1.1,2.4,1.9
		c0.6,0.9,1,1.9,1.2,3.2c0.2,1.3,0.4,2.8,0.3,4.5l0,13l2.8,0.5l0,3.5l-14.5,0l0-3.5l2.3-0.5l0-13c0-1,0-1.8-0.1-2.4
		c-0.1-0.7-0.2-1.2-0.5-1.6c-0.2-0.4-0.5-0.7-0.9-0.9c-0.4-0.2-0.9-0.3-1.5-0.3c-0.9,0-1.6,0.2-2.3,0.6c-0.7,0.4-1.3,0.8-1.7,1.3
		l0,16.3l2.4,0.5l0,3.5l-14.5,0L406,121.1z"/>
</g>
<g>
	<path class="st2" d="M103.5,232h3.4h8l1.6,5l36.8,0c0,0-4.2-54.6,0-84.9c4.2-30.3,7.6-59.2,7.6-59.2l-31.1-0.4
		c0,0-16.7,29.2-44.4,29.2l0,16.3c0,0,15.5,1.5,22-0.8s13.7-6.1,13.7-6.1L96.1,237l1.5,0l1.6-5H103.5z"/>
	<path class="st2" d="M198.8,230.8c0.8-0.8,1.8-1.5,2.9-2c1.1-0.4,2.3-0.7,3.6-0.7c1.3,0,2.4,0.2,3.4,0.6c1.1,0.4,2,1,2.8,1.7
		c0.8,0.8,1.4,1.6,1.8,2.7c0.4,1,0.6,2,0.6,3c0,0.2,0,0.4,0,0.6l67.6,0l1.2-42.1c0,0-8.3,9.9-20.1,9.9c-11.8,0-20.9-4.6-20.9-4.6
		s5.3-4.9,21.6-21.2s11.8-44.7,11.8-44.7s-0.5-5.3-3.6-11.9l-29.3,29.3c-3.8,5.8-12.2,13.5-31.2,25.8c-36,23.5-34.1,59.5-34.1,59.5
		l19.6,0c0-1.1,0.2-2.1,0.6-3.1C197.5,232.5,198.1,231.6,198.8,230.8z"/>
</g>
<g>
	<path class="st4" d="M88.1,269l2.8-0.6l10.7-33h10.8l10.7,33l2.6,0.6v3.7h-17.1V269l3.3-0.6l-1.4-5.3H99.9l-1.4,5.4l3.7,0.4v3.7
		H88.2L88.1,269z M109.5,258.8l-3.8-14.2l-0.5-3l-0.6,3l-3.6,14.2H109.5z"/>
	<path class="st4" d="M127.3,269.1l2.5-0.5v-17.1l-2.7-0.9v-4.6l10.1-1.2h0.1l1.5,1.2v1.6l0,1.1c0.5-0.5,1.1-1,1.8-1.4
		c0.7-0.5,1.5-0.9,2.3-1.2c0.8-0.4,1.7-0.6,2.7-0.8s2-0.3,3.1-0.3c1.4,0,2.7,0.2,3.7,0.5c1,0.4,1.9,1,2.5,1.8
		c0.7,0.8,1.1,1.9,1.4,3.3c0.3,1.3,0.5,3,0.5,5v13.2l2.4,0.5v3.7h-14.5v-3.6l2.1-0.5v-13.2c0-1,0-1.9-0.1-2.6s-0.3-1.2-0.5-1.6
		s-0.6-0.7-0.9-0.9s-0.9-0.3-1.5-0.3c-0.5,0-0.9,0.1-1.3,0.2s-0.8,0.3-1.1,0.5s-0.6,0.4-0.9,0.6s-0.5,0.4-0.7,0.6v16.6l2.4,0.5v3.6
		h-14.9V269.1z"/>
	<path class="st4" d="M162.7,269.1l2.5-0.5v-17.1l-2.7-0.9v-4.6l10.1-1.2h0.1l1.5,1.2v1.6l0,1.1c0.5-0.5,1.1-1,1.8-1.4
		c0.7-0.5,1.5-0.9,2.3-1.2s1.7-0.6,2.7-0.8c1-0.2,2-0.3,3.1-0.3c1.4,0,2.7,0.2,3.7,0.5c1,0.4,1.9,1,2.5,1.8c0.7,0.8,1.1,1.9,1.4,3.3
		c0.3,1.3,0.5,3,0.5,5v13.2l2.4,0.5v3.7h-14.5v-3.6l2.1-0.5v-13.2c0-1,0-1.9-0.1-2.6c-0.1-0.7-0.3-1.2-0.5-1.6
		c-0.2-0.4-0.6-0.7-0.9-0.9s-0.9-0.3-1.5-0.3c-0.5,0-0.9,0.1-1.3,0.2c-0.4,0.1-0.8,0.3-1.1,0.5s-0.6,0.4-0.9,0.6
		c-0.3,0.2-0.5,0.4-0.7,0.6v16.6l2.4,0.5v3.6h-14.9V269.1z"/>
	<path class="st4" d="M197.7,269l2.7-0.5v-17.7l-3.2-1v-4.3l11.2-1.3h0.1l1.7,1.2v23.2l2.6,0.5v3.7h-15.1V269z M202.8,241.1
		c-0.6-0.2-1.1-0.5-1.6-1c-0.4-0.4-0.8-0.9-1-1.4c-0.2-0.6-0.4-1.2-0.4-1.8c0-0.8,0.1-1.5,0.4-2.1s0.6-1.2,1.1-1.7
		c0.5-0.5,1-0.9,1.7-1.2c0.7-0.3,1.4-0.4,2.3-0.4h0c0.8,0,1.6,0.1,2.2,0.4c0.6,0.2,1.2,0.6,1.6,1c0.4,0.4,0.8,0.9,1,1.5
		c0.2,0.6,0.3,1.2,0.3,1.8c0,0.8-0.1,1.5-0.4,2.1c-0.2,0.7-0.6,1.2-1.1,1.7s-1.1,0.9-1.8,1.1c-0.7,0.3-1.6,0.4-2.5,0.4h0
		C204.1,241.5,203.4,241.3,202.8,241.1z"/>
	<path class="st4" d="M215.3,249l-1.8-0.6v-3.6H229v3.6l-2.9,0.6l3.8,12.4l0.8,3.6l0.7-3.6l3.7-12.4l-2.9-0.6v-3.6h12.4v3.6
		l-2.7,0.6l-8.9,23.7h-7.9L215.3,249z"/>
	<path class="st4" d="M244.3,258.9c0-2.3,0.3-4.3,1-6.1c0.7-1.8,1.6-3.2,2.8-4.4s2.7-2.1,4.4-2.7c1.7-0.6,3.7-0.9,5.8-0.9
		c1.9,0,3.5,0.2,4.9,0.7c1.4,0.4,2.6,1.1,3.5,1.9s1.7,1.8,2.1,3c0.5,1.2,0.7,2.5,0.8,4c0,1.1,0,2-0.1,2.8c-0.1,0.8-0.2,1.5-0.3,2.1
		h-15c0.2,2.6,0.9,4.6,2,5.8c1.1,1.2,2.6,1.8,4.6,1.8c0.6,0,1.3-0.1,1.9-0.2c0.7-0.1,1.3-0.3,1.9-0.5c0.6-0.2,1.2-0.4,1.7-0.6
		c0.5-0.2,1-0.4,1.4-0.6l1.6,3.5c-0.3,0.4-0.9,0.8-1.6,1.3s-1.6,1-2.6,1.4c-1,0.4-2.1,0.8-3.3,1.1c-1.2,0.3-2.4,0.5-3.7,0.5
		c-2.5,0-4.7-0.3-6.5-1c-1.8-0.7-3.2-1.6-4.3-2.9c-1.1-1.2-1.9-2.7-2.4-4.4C244.5,262.7,244.3,260.9,244.3,258.9z M260.5,255.6
		c0-0.1,0-0.2,0-0.4c0-0.2,0-0.3,0-0.5c0-0.2,0-0.3,0-0.5c0-0.2,0-0.3,0-0.4c0-0.8,0-1.6-0.1-2.2s-0.2-1.2-0.4-1.6
		c-0.2-0.5-0.5-0.8-0.9-1s-0.8-0.4-1.4-0.4c-0.5,0-1,0.1-1.4,0.2c-0.4,0.2-0.8,0.5-1.1,1c-0.3,0.5-0.6,1.2-0.7,2.1
		c-0.2,0.9-0.3,2.1-0.3,3.6H260.5z"/>
	<path class="st4" d="M273.1,269.1l2.7-0.5v-17.3l-2.7-0.9V246l9-1.2h0.1l1.6,1.1v1.3l-0.2,4.2h0.2c0.1-0.6,0.5-1.3,0.9-2.1
		s1.1-1.5,1.9-2.2s1.6-1.2,2.6-1.7s2-0.7,3.2-0.7c0.5,0,1,0,1.3,0.1s0.7,0.2,0.8,0.3v10c-0.2-0.2-0.5-0.4-0.8-0.6
		c-0.3-0.2-0.6-0.4-1-0.5c-0.4-0.2-0.8-0.3-1.3-0.4c-0.5-0.1-1-0.1-1.7-0.1c-1,0-2,0.1-2.8,0.3c-0.8,0.2-1.4,0.5-1.7,0.7v13.8
		l5.1,0.5v3.6h-17.5V269.1z"/>
	<path class="st4" d="M297.7,263.9h5.5l1.4,4c0.1,0.1,0.3,0.3,0.5,0.4c0.2,0.1,0.5,0.3,0.9,0.4s0.7,0.2,1.1,0.3
		c0.4,0.1,0.8,0.1,1.1,0.1c0.6,0,1.1-0.1,1.5-0.2s0.8-0.3,1.1-0.5s0.5-0.5,0.7-0.8c0.2-0.3,0.2-0.6,0.2-1c0-0.6-0.2-1.1-0.7-1.6
		c-0.4-0.4-1-0.8-1.8-1.2s-1.6-0.8-2.6-1.2s-2-0.8-3-1.4c-0.9-0.4-1.8-0.9-2.5-1.5c-0.8-0.5-1.4-1.2-1.9-1.8
		c-0.5-0.7-0.9-1.4-1.2-2.3c-0.3-0.8-0.4-1.8-0.4-2.8c0-1.1,0.3-2.1,0.8-3.1c0.5-1,1.3-1.8,2.2-2.6c1-0.7,2.2-1.3,3.7-1.7
		c1.5-0.4,3.2-0.6,5.1-0.6c1.4,0,2.6,0,3.7,0s2,0.1,2.8,0.1c0.8,0,1.5,0.1,2.1,0.1c0.6,0,1.2,0,1.7,0v7.1h-5.2l-1.4-3
		c-0.1-0.2-0.4-0.4-1-0.6s-1.2-0.3-1.9-0.3c-1.1,0-2,0.2-2.6,0.7c-0.6,0.5-0.9,1.1-0.9,1.9c0,0.6,0.2,1,0.5,1.5s0.8,0.8,1.4,1.2
		c0.6,0.4,1.2,0.7,2,1c0.8,0.3,1.5,0.6,2.3,1c1,0.4,2.1,0.9,3.1,1.4c1,0.5,2,1.1,2.8,1.8c0.8,0.7,1.5,1.5,2,2.4
		c0.5,0.9,0.8,2,0.8,3.3c0,1.1-0.2,2.1-0.7,3.1c-0.4,1-1.1,1.9-2.1,2.6c-1,0.8-2.2,1.4-3.8,1.8c-1.5,0.5-3.4,0.7-5.6,0.7
		c-1.5,0-2.9-0.1-4.1-0.3c-1.2-0.2-2.3-0.4-3.2-0.6s-1.8-0.4-2.4-0.7c-0.7-0.2-1.3-0.4-1.8-0.4V263.9z"/>
	<path class="st4" d="M323.6,264c0-1.4,0.3-2.7,1-3.9c0.7-1.2,1.6-2.1,3-2.9s3-1.4,5-1.9c2-0.4,4.4-0.7,7.1-0.7v-0.6
		c0-0.5-0.1-1-0.2-1.4c-0.1-0.4-0.3-0.7-0.6-1c-0.3-0.3-0.8-0.5-1.4-0.6c-0.6-0.1-1.4-0.2-2.4-0.2c-1,0-1.9,0-2.8,0.1
		c-0.9,0.1-1.6,0.2-2.4,0.4c-0.7,0.1-1.3,0.3-1.9,0.5c-0.6,0.2-1,0.3-1.5,0.4h0l-1.9-3.7c0.3-0.3,0.9-0.6,1.7-1.1
		c0.8-0.4,1.7-0.9,2.9-1.3c1.1-0.4,2.4-0.8,3.8-1.1c1.4-0.3,2.9-0.5,4.6-0.5c2.1,0,3.9,0.2,5.3,0.6s2.5,1,3.4,1.8
		c0.8,0.8,1.4,1.8,1.8,3.1c0.4,1.3,0.5,2.8,0.5,4.5v13.6h2.4v3.6c-0.3,0.1-0.8,0.1-1.3,0.2c-0.6,0.1-1.2,0.2-1.9,0.2
		c-0.7,0.1-1.4,0.1-2.2,0.2c-0.7,0.1-1.4,0.1-2,0.1c-0.7,0-1.3-0.1-1.8-0.2c-0.5-0.1-0.8-0.3-1.1-0.5c-0.3-0.2-0.4-0.5-0.5-0.9
		c-0.1-0.4-0.1-0.9-0.1-1.4v-0.9c-0.3,0.5-0.7,0.9-1.2,1.4s-1.1,0.9-1.8,1.3c-0.7,0.4-1.4,0.7-2.3,0.9c-0.8,0.2-1.8,0.3-2.8,0.3
		c-1.2,0-2.3-0.2-3.3-0.6c-1-0.4-1.9-1-2.7-1.7s-1.4-1.6-1.8-2.7S323.6,265.4,323.6,264z M333.7,262.9c0,0.7,0.1,1.3,0.2,1.8
		s0.3,1,0.6,1.4s0.6,0.7,1,0.9c0.4,0.2,0.8,0.3,1.3,0.3c0.5,0,1-0.1,1.5-0.4c0.5-0.3,1-0.6,1.3-1v-7.7c-1.1,0-2.1,0.1-2.9,0.4
		c-0.8,0.3-1.4,0.6-1.8,1c-0.5,0.4-0.8,0.9-1,1.5C333.8,261.8,333.7,262.3,333.7,262.9z"/>
	<path class="st4" d="M355.1,277.8c0.3,0.1,0.7,0.2,1.1,0.2c0.4,0.1,0.8,0.1,1.2,0.2c0.4,0,0.8,0.1,1.1,0.1c1,0,1.8-0.2,2.5-0.5
		c0.7-0.3,1.3-0.7,1.7-1.2c0.5-0.5,0.9-1.1,1.2-1.8c0.3-0.7,0.6-1.4,0.9-2.1h-3.2l-9.4-23.7l-2.1-0.6v-3.6h16.1v3.6L363,249
		l3.8,12.6l1.1,4l0.8-4l3.5-12.7l-2.9-0.6v-3.6h11.9v3.6L379,249c-0.3,0.8-0.6,1.7-1,2.8c-0.4,1.1-0.8,2.3-1.2,3.5
		c-0.4,1.3-0.9,2.6-1.4,3.9c-0.5,1.3-0.9,2.7-1.4,3.9c-0.5,1.3-0.9,2.5-1.3,3.7c-0.4,1.2-0.8,2.2-1.1,3.1c-0.3,0.9-0.6,1.6-0.8,2.2
		c-0.2,0.6-0.3,0.9-0.3,0.9c-0.7,1.9-1.4,3.6-2.2,5.1c-0.8,1.5-1.6,2.7-2.5,3.7s-2,1.8-3.1,2.3c-1.2,0.5-2.5,0.8-4,0.8
		c-0.4,0-0.7,0-1.2,0s-0.8,0-1.2-0.1c-0.4,0-0.8-0.1-1.1-0.2s-0.6-0.2-0.8-0.3v-6.9C354.5,277.6,354.8,277.7,355.1,277.8z"/>
</g>
<g>
	<path class="st4" d="M127.1,72l3-0.3V58h-2.4l-1.1,5.6H124l0.4-7.6h16.2l0.3,7.6h-2.4l-1.2-5.6H135v13.7l3.3,0.3v1.7h-11.2V72z"/>
	<path class="st4" d="M142.2,72l1.2-0.2V57l-1.6-0.4V55l5.3-0.6h0.1l0.8,0.6l0,5l-0.2,2.2c0.2-0.2,0.5-0.4,0.7-0.6
		c0.3-0.2,0.6-0.4,1-0.5s0.8-0.3,1.3-0.4c0.5-0.1,1-0.2,1.5-0.2c0.8,0,1.4,0.1,1.9,0.3c0.5,0.2,0.9,0.5,1.2,0.9s0.5,0.9,0.6,1.6
		c0.1,0.6,0.2,1.4,0.2,2.2v6.3l1.4,0.2v1.7h-7.1V72l1.1-0.2v-6.3c0-0.5,0-0.9-0.1-1.2c0-0.3-0.1-0.6-0.2-0.8
		c-0.1-0.2-0.3-0.3-0.5-0.4c-0.2-0.1-0.4-0.1-0.7-0.1c-0.4,0-0.8,0.1-1.1,0.3c-0.3,0.2-0.6,0.4-0.8,0.6v7.9l1.2,0.2v1.7h-7.1V72z"/>
	<path class="st4" d="M158.4,67.2c0-1.1,0.2-2.1,0.5-2.9s0.8-1.5,1.3-2.1c0.6-0.6,1.3-1,2.1-1.3c0.8-0.3,1.8-0.4,2.8-0.4
		c0.9,0,1.7,0.1,2.4,0.3c0.7,0.2,1.2,0.5,1.7,0.9c0.5,0.4,0.8,0.9,1,1.4c0.2,0.6,0.4,1.2,0.4,1.9c0,0.5,0,1-0.1,1.4s-0.1,0.7-0.2,1
		h-7.2c0.1,1.3,0.4,2.2,1,2.8c0.5,0.6,1.2,0.9,2.2,0.9c0.3,0,0.6,0,0.9-0.1c0.3-0.1,0.6-0.1,0.9-0.2s0.6-0.2,0.8-0.3
		s0.5-0.2,0.6-0.3l0.8,1.6c-0.2,0.2-0.4,0.4-0.8,0.6c-0.4,0.2-0.8,0.5-1.2,0.7c-0.5,0.2-1,0.4-1.6,0.5c-0.6,0.1-1.2,0.2-1.8,0.2
		c-1.2,0-2.2-0.2-3.1-0.5c-0.8-0.3-1.5-0.8-2.1-1.4c-0.5-0.6-0.9-1.3-1.1-2.1C158.6,69,158.4,68.1,158.4,67.2z M166.2,65.6
		c0,0,0-0.1,0-0.2s0-0.2,0-0.2c0-0.1,0-0.2,0-0.2s0-0.1,0-0.2c0-0.4,0-0.7-0.1-1s-0.1-0.6-0.2-0.8c-0.1-0.2-0.2-0.4-0.4-0.5
		c-0.2-0.1-0.4-0.2-0.7-0.2c-0.2,0-0.5,0-0.7,0.1c-0.2,0.1-0.4,0.2-0.5,0.5c-0.1,0.2-0.3,0.6-0.4,1s-0.1,1-0.1,1.7H166.2z"/>
	<path class="st4" d="M177.8,71.9l1.7-0.3V58.3l-1.7-0.3v-2h4c0.4,0,0.8,0,1.1,0s0.7,0,1,0c0.3,0,0.7,0,1,0s0.7,0,1.1,0
		c1.5,0,2.7,0.2,3.8,0.5c1.1,0.4,2,0.9,2.8,1.6c0.7,0.7,1.3,1.5,1.7,2.6s0.5,2.2,0.5,3.5c0,1.4-0.2,2.6-0.6,3.8s-1,2.2-1.8,3.1
		s-1.7,1.5-2.9,2s-2.4,0.7-3.9,0.7c-0.3,0-0.7,0-1,0s-0.7,0-1.1,0c-0.3,0-0.7,0-1,0s-0.5,0-0.7,0h-4.1V71.9z M184.3,71.6
		c0.2,0.1,0.4,0.1,0.6,0.2s0.5,0.1,0.8,0.1c0.6,0,1.1-0.1,1.6-0.4c0.5-0.3,0.9-0.7,1.2-1.2c0.3-0.6,0.6-1.3,0.7-2.2
		c0.2-0.9,0.3-2,0.3-3.2c0-1-0.1-1.9-0.2-2.8c-0.1-0.9-0.3-1.6-0.7-2.2c-0.3-0.6-0.7-1.1-1.2-1.5c-0.5-0.4-1.1-0.5-1.9-0.5
		c-0.4,0-0.7,0-0.9,0.1c-0.2,0.1-0.3,0.1-0.4,0.1V71.6z"/>
	<path class="st4" d="M195.9,69.6c0-0.7,0.2-1.3,0.5-1.9c0.3-0.6,0.8-1,1.4-1.4c0.6-0.4,1.4-0.7,2.4-0.9c1-0.2,2.1-0.3,3.4-0.3v-0.3
		c0-0.3,0-0.5-0.1-0.7s-0.2-0.3-0.3-0.5c-0.2-0.1-0.4-0.2-0.7-0.3s-0.7-0.1-1.1-0.1c-0.5,0-0.9,0-1.3,0.1c-0.4,0-0.8,0.1-1.1,0.2
		c-0.3,0.1-0.6,0.1-0.9,0.2s-0.5,0.1-0.7,0.2h0l-0.9-1.7c0.2-0.1,0.4-0.3,0.8-0.5c0.4-0.2,0.8-0.4,1.4-0.6c0.5-0.2,1.1-0.4,1.8-0.5
		c0.7-0.1,1.4-0.2,2.2-0.2c1,0,1.9,0.1,2.5,0.3c0.7,0.2,1.2,0.5,1.6,0.8s0.7,0.9,0.9,1.5c0.2,0.6,0.3,1.3,0.3,2.2v6.5h1.2v1.7
		c-0.1,0-0.4,0.1-0.6,0.1c-0.3,0-0.6,0.1-0.9,0.1s-0.7,0.1-1,0.1s-0.7,0-0.9,0c-0.4,0-0.6,0-0.9-0.1c-0.2-0.1-0.4-0.1-0.5-0.2
		c-0.1-0.1-0.2-0.3-0.2-0.4s-0.1-0.4-0.1-0.7v-0.4c-0.2,0.2-0.4,0.4-0.6,0.7s-0.5,0.4-0.8,0.6s-0.7,0.3-1.1,0.4s-0.8,0.2-1.3,0.2
		c-0.6,0-1.1-0.1-1.6-0.3c-0.5-0.2-0.9-0.5-1.3-0.8c-0.4-0.4-0.7-0.8-0.9-1.3C196,70.9,195.9,70.3,195.9,69.6z M200.7,69.1
		c0,0.3,0,0.6,0.1,0.9c0.1,0.3,0.2,0.5,0.3,0.7c0.1,0.2,0.3,0.3,0.5,0.5c0.2,0.1,0.4,0.2,0.6,0.2c0.2,0,0.5-0.1,0.7-0.2
		c0.3-0.1,0.5-0.3,0.6-0.5v-3.7c-0.5,0-1,0.1-1.4,0.2c-0.4,0.1-0.7,0.3-0.9,0.5c-0.2,0.2-0.4,0.4-0.5,0.7
		C200.7,68.5,200.7,68.8,200.7,69.1z"/>
	<path class="st4" d="M210.1,72l1.3-0.2v-8.5l-1.5-0.5v-2.1l5.3-0.6h0.1l0.8,0.5v11.1l1.2,0.2v1.8h-7.2V72z M212.5,58.7
		c-0.3-0.1-0.5-0.3-0.7-0.5c-0.2-0.2-0.4-0.4-0.5-0.7c-0.1-0.3-0.2-0.5-0.2-0.9c0-0.4,0.1-0.7,0.2-1s0.3-0.6,0.5-0.8
		c0.2-0.2,0.5-0.4,0.8-0.5s0.7-0.2,1.1-0.2h0c0.4,0,0.8,0.1,1.1,0.2s0.6,0.3,0.8,0.5c0.2,0.2,0.4,0.4,0.5,0.7
		c0.1,0.3,0.2,0.5,0.2,0.9c0,0.4-0.1,0.7-0.2,1c-0.1,0.3-0.3,0.6-0.5,0.8c-0.2,0.2-0.5,0.4-0.9,0.5c-0.3,0.1-0.7,0.2-1.2,0.2h0
		C213.1,58.8,212.8,58.8,212.5,58.7z"/>
	<path class="st4" d="M218.6,72l1.3-0.2v-15l-1.6-0.4v-1.7l5.3-0.6h0.1l0.8,0.6v17l1.3,0.2v1.8h-7.2V72z"/>
	<path class="st4" d="M228,76.2c0.2,0,0.3,0.1,0.5,0.1c0.2,0,0.4,0.1,0.6,0.1c0.2,0,0.4,0,0.5,0c0.5,0,0.9-0.1,1.2-0.2
		c0.3-0.1,0.6-0.3,0.8-0.6c0.2-0.2,0.4-0.5,0.6-0.8c0.2-0.3,0.3-0.7,0.5-1h-1.5l-4.5-11.3l-1-0.3v-1.7h7.7v1.7l-1.6,0.3l1.8,6
		l0.5,1.9l0.4-1.9l1.7-6l-1.4-0.3v-1.7h5.7v1.7l-1.1,0.3c-0.1,0.4-0.3,0.8-0.5,1.3c-0.2,0.5-0.4,1.1-0.6,1.7
		c-0.2,0.6-0.4,1.2-0.7,1.9c-0.2,0.6-0.4,1.3-0.7,1.9s-0.4,1.2-0.6,1.7c-0.2,0.6-0.4,1-0.5,1.5c-0.2,0.4-0.3,0.8-0.4,1
		s-0.1,0.4-0.2,0.4c-0.3,0.9-0.7,1.7-1,2.4s-0.8,1.3-1.2,1.8c-0.4,0.5-0.9,0.8-1.5,1.1c-0.5,0.2-1.2,0.4-1.9,0.4c-0.2,0-0.4,0-0.6,0
		c-0.2,0-0.4,0-0.6,0c-0.2,0-0.4-0.1-0.5-0.1c-0.2,0-0.3-0.1-0.4-0.1V76C227.8,76.1,227.9,76.1,228,76.2z"/>
	<path class="st4" d="M246.4,65.1c0-1.5,0.2-2.7,0.7-3.9s1.1-2.1,1.9-2.9c0.8-0.8,1.8-1.4,2.9-1.8s2.3-0.6,3.6-0.6
		c0.6,0,1.2,0,1.8,0c0.6,0,1.1,0,1.6,0c0.5,0,1,0,1.4,0c0.4,0,0.7,0,1,0l-0.3,6.2h-3l-0.9-3.9c-0.1-0.1-0.1-0.1-0.2-0.2
		s-0.2-0.1-0.3-0.2c-0.1,0-0.3-0.1-0.5-0.1c-0.2,0-0.4,0-0.7,0c-0.5,0-1,0.1-1.4,0.4c-0.4,0.3-0.8,0.7-1.1,1.3
		c-0.3,0.6-0.5,1.3-0.7,2.1c-0.2,0.9-0.2,1.9-0.2,3c0,1.1,0.1,2.1,0.2,2.9c0.1,0.9,0.4,1.6,0.6,2.3c0.3,0.6,0.6,1.1,1.1,1.4
		c0.4,0.3,0.9,0.5,1.5,0.5c0.3,0,0.6,0,0.8-0.1c0.2,0,0.4-0.1,0.5-0.1c0.2-0.1,0.3-0.1,0.4-0.2c0.1-0.1,0.2-0.2,0.3-0.3l1.1-2.6
		l2.7,0.2l-0.4,4.1c-0.3,0-0.6,0.1-0.8,0.1c-0.3,0.1-0.5,0.1-0.8,0.2c-0.3,0.1-0.5,0.1-0.8,0.2c-0.3,0.1-0.6,0.1-0.9,0.2
		s-0.7,0.1-1.1,0.1c-0.4,0-0.9,0.1-1.4,0.1c-1.5,0-2.7-0.2-3.8-0.6c-1.1-0.4-2-1-2.7-1.8s-1.2-1.7-1.6-2.7
		C246.6,67.6,246.4,66.4,246.4,65.1z"/>
	<path class="st4" d="M262.3,69.6c0-0.7,0.2-1.3,0.5-1.9c0.3-0.6,0.8-1,1.4-1.4c0.6-0.4,1.4-0.7,2.4-0.9c1-0.2,2.1-0.3,3.4-0.3v-0.3
		c0-0.3,0-0.5-0.1-0.7s-0.2-0.3-0.3-0.5c-0.2-0.1-0.4-0.2-0.7-0.3s-0.7-0.1-1.1-0.1c-0.5,0-0.9,0-1.3,0.1c-0.4,0-0.8,0.1-1.1,0.2
		c-0.3,0.1-0.6,0.1-0.9,0.2s-0.5,0.1-0.7,0.2h0l-0.9-1.7c0.2-0.1,0.4-0.3,0.8-0.5c0.4-0.2,0.8-0.4,1.4-0.6c0.5-0.2,1.1-0.4,1.8-0.5
		c0.7-0.1,1.4-0.2,2.2-0.2c1,0,1.9,0.1,2.5,0.3c0.7,0.2,1.2,0.5,1.6,0.8s0.7,0.9,0.9,1.5c0.2,0.6,0.3,1.3,0.3,2.2v6.5h1.2v1.7
		c-0.1,0-0.4,0.1-0.6,0.1c-0.3,0-0.6,0.1-0.9,0.1s-0.7,0.1-1,0.1s-0.7,0-0.9,0c-0.4,0-0.6,0-0.9-0.1c-0.2-0.1-0.4-0.1-0.5-0.2
		c-0.1-0.1-0.2-0.3-0.2-0.4s-0.1-0.4-0.1-0.7v-0.4c-0.2,0.2-0.4,0.4-0.6,0.7s-0.5,0.4-0.8,0.6s-0.7,0.3-1.1,0.4s-0.8,0.2-1.3,0.2
		c-0.6,0-1.1-0.1-1.6-0.3c-0.5-0.2-0.9-0.5-1.3-0.8c-0.4-0.4-0.7-0.8-0.9-1.3C262.4,70.9,262.3,70.3,262.3,69.6z M267.1,69.1
		c0,0.3,0,0.6,0.1,0.9c0.1,0.3,0.2,0.5,0.3,0.7c0.1,0.2,0.3,0.3,0.5,0.5c0.2,0.1,0.4,0.2,0.6,0.2c0.2,0,0.5-0.1,0.7-0.2
		c0.3-0.1,0.5-0.3,0.6-0.5v-3.7c-0.5,0-1,0.1-1.4,0.2c-0.4,0.1-0.7,0.3-0.9,0.5c-0.2,0.2-0.4,0.4-0.5,0.7
		C267.1,68.5,267.1,68.8,267.1,69.1z"/>
	<path class="st4" d="M276.5,72l1.3-0.2v-8.2l-1.3-0.4V61l4.3-0.6h0.1l0.8,0.5v0.6l-0.1,2h0.1c0.1-0.3,0.2-0.6,0.4-1
		c0.2-0.4,0.5-0.7,0.9-1s0.8-0.6,1.2-0.8c0.5-0.2,1-0.3,1.5-0.3c0.2,0,0.5,0,0.6,0.1c0.2,0,0.3,0.1,0.4,0.2v4.8
		c-0.1-0.1-0.2-0.2-0.4-0.3c-0.1-0.1-0.3-0.2-0.5-0.2c-0.2-0.1-0.4-0.1-0.6-0.2c-0.2,0-0.5-0.1-0.8-0.1c-0.5,0-0.9,0.1-1.3,0.2
		c-0.4,0.1-0.7,0.2-0.8,0.4v6.6l2.4,0.2v1.7h-8.4V72z"/>
	<path class="st4" d="M293.1,73.8c-0.7,0-1.4-0.1-2-0.4c-0.6-0.2-1.2-0.6-1.6-1.1s-0.8-1.2-1.1-2s-0.4-1.8-0.4-2.9
		c0-0.6,0.1-1.2,0.2-1.8c0.1-0.6,0.3-1.1,0.6-1.6s0.6-1,1-1.4c0.4-0.4,0.9-0.8,1.4-1.1c0.5-0.3,1.2-0.6,1.8-0.7
		c0.7-0.2,1.4-0.3,2.3-0.3c0.2,0,0.3,0,0.5,0c0.2,0,0.3,0.1,0.5,0.1v-3.5l-2.2-0.4V55l5.8-0.5h0.1l0.8,0.7v16.7h1.2v1.7
		c-0.2,0-0.4,0.1-0.7,0.1c-0.3,0-0.6,0.1-0.9,0.1c-0.3,0-0.6,0.1-0.9,0.1c-0.3,0-0.6,0-0.8,0c-0.3,0-0.6,0-0.8-0.1
		c-0.2,0-0.4-0.1-0.5-0.2s-0.3-0.2-0.3-0.4s-0.1-0.4-0.1-0.7v-0.5c-0.2,0.3-0.4,0.5-0.7,0.8s-0.6,0.4-0.9,0.6
		c-0.3,0.2-0.7,0.3-1,0.4C293.8,73.7,293.5,73.8,293.1,73.8z M294.8,71.5c0.4,0,0.7-0.1,0.9-0.2c0.2-0.1,0.4-0.3,0.6-0.5v-8.1
		c-0.1-0.1-0.2-0.3-0.4-0.3c-0.2-0.1-0.4-0.1-0.7-0.1c-0.3,0-0.6,0.1-0.9,0.2c-0.3,0.2-0.5,0.4-0.7,0.8c-0.2,0.4-0.4,0.9-0.5,1.5
		c-0.1,0.6-0.2,1.4-0.2,2.3c0,0.8,0,1.4,0.1,2c0.1,0.6,0.2,1,0.4,1.4c0.2,0.4,0.4,0.6,0.6,0.8C294.2,71.4,294.5,71.5,294.8,71.5z"/>
	<path class="st4" d="M303.4,72l1.3-0.2v-8.5l-1.5-0.5v-2.1l5.3-0.6h0.1l0.8,0.5v11.1l1.2,0.2v1.8h-7.2V72z M305.8,58.7
		c-0.3-0.1-0.5-0.3-0.7-0.5c-0.2-0.2-0.4-0.4-0.5-0.7c-0.1-0.3-0.2-0.5-0.2-0.9c0-0.4,0.1-0.7,0.2-1s0.3-0.6,0.5-0.8
		c0.2-0.2,0.5-0.4,0.8-0.5s0.7-0.2,1.1-0.2h0c0.4,0,0.8,0.1,1.1,0.2s0.6,0.3,0.8,0.5c0.2,0.2,0.4,0.4,0.5,0.7
		c0.1,0.3,0.2,0.5,0.2,0.9c0,0.4-0.1,0.7-0.2,1c-0.1,0.3-0.3,0.6-0.5,0.8c-0.2,0.2-0.5,0.4-0.9,0.5c-0.3,0.1-0.7,0.2-1.2,0.2h0
		C306.4,58.8,306.1,58.8,305.8,58.7z"/>
	<path class="st4" d="M312.3,72l1.2-0.2v-8.2l-1.3-0.4V61l4.8-0.6h0.1l0.7,0.6v0.8l0,0.5c0.2-0.2,0.5-0.5,0.9-0.7s0.7-0.4,1.1-0.6
		s0.8-0.3,1.3-0.4c0.5-0.1,1-0.2,1.5-0.2c0.7,0,1.3,0.1,1.8,0.3s0.9,0.5,1.2,0.8c0.3,0.4,0.5,0.9,0.7,1.6c0.1,0.6,0.2,1.4,0.2,2.4
		v6.3l1.2,0.2v1.7h-6.9V72l1-0.2v-6.3c0-0.5,0-0.9-0.1-1.2c0-0.3-0.1-0.6-0.2-0.8s-0.3-0.3-0.5-0.4c-0.2-0.1-0.4-0.1-0.7-0.1
		c-0.2,0-0.4,0-0.6,0.1c-0.2,0.1-0.4,0.1-0.5,0.2c-0.2,0.1-0.3,0.2-0.4,0.3c-0.1,0.1-0.2,0.2-0.3,0.3v7.9l1.2,0.2v1.7h-7.1V72z"/>
	<path class="st4" d="M328.5,69.6c0-0.7,0.2-1.3,0.5-1.9c0.3-0.6,0.8-1,1.4-1.4c0.6-0.4,1.4-0.7,2.4-0.9c1-0.2,2.1-0.3,3.4-0.3v-0.3
		c0-0.3,0-0.5-0.1-0.7s-0.2-0.3-0.3-0.5c-0.2-0.1-0.4-0.2-0.7-0.3s-0.7-0.1-1.1-0.1c-0.5,0-0.9,0-1.3,0.1c-0.4,0-0.8,0.1-1.1,0.2
		c-0.3,0.1-0.6,0.1-0.9,0.2S330.2,64,330,64h0l-0.9-1.7c0.2-0.1,0.4-0.3,0.8-0.5c0.4-0.2,0.8-0.4,1.4-0.6c0.5-0.2,1.1-0.4,1.8-0.5
		c0.7-0.1,1.4-0.2,2.2-0.2c1,0,1.9,0.1,2.5,0.3c0.7,0.2,1.2,0.5,1.6,0.8s0.7,0.9,0.9,1.5c0.2,0.6,0.3,1.3,0.3,2.2v6.5h1.2v1.7
		c-0.1,0-0.4,0.1-0.6,0.1c-0.3,0-0.6,0.1-0.9,0.1s-0.7,0.1-1,0.1s-0.7,0-0.9,0c-0.4,0-0.6,0-0.9-0.1c-0.2-0.1-0.4-0.1-0.5-0.2
		c-0.1-0.1-0.2-0.3-0.2-0.4s-0.1-0.4-0.1-0.7v-0.4c-0.2,0.2-0.4,0.4-0.6,0.7s-0.5,0.4-0.8,0.6s-0.7,0.3-1.1,0.4s-0.8,0.2-1.3,0.2
		c-0.6,0-1.1-0.1-1.6-0.3c-0.5-0.2-0.9-0.5-1.3-0.8c-0.4-0.4-0.7-0.8-0.9-1.3C328.7,70.9,328.5,70.3,328.5,69.6z M333.4,69.1
		c0,0.3,0,0.6,0.1,0.9c0.1,0.3,0.2,0.5,0.3,0.7c0.1,0.2,0.3,0.3,0.5,0.5c0.2,0.1,0.4,0.2,0.6,0.2c0.2,0,0.5-0.1,0.7-0.2
		c0.3-0.1,0.5-0.3,0.6-0.5v-3.7c-0.5,0-1,0.1-1.4,0.2c-0.4,0.1-0.7,0.3-0.9,0.5c-0.2,0.2-0.4,0.4-0.5,0.7
		C333.4,68.5,333.4,68.8,333.4,69.1z"/>
	<path class="st4" d="M342.5,72l1.3-0.2v-15l-1.6-0.4v-1.7l5.3-0.6h0.1l0.8,0.6v17l1.3,0.2v1.8h-7.2V72z"/>
</g>
</svg>
