<?xml version="1.0" encoding="utf-8"?>
<!-- Generator: Adobe Illustrator 19.1.0, SVG Export Plug-In . SVG Version: 6.00 Build 0)  -->
<svg version="1.1" id="Layer_1" xmlns="http://www.w3.org/2000/svg" xmlns:xlink="http://www.w3.org/1999/xlink" x="0px" y="0px"
	 width="449.7px" height="330px" viewBox="-80 232 449.7 330" style="enable-background:new -80 232 449.7 330;"
	 xml:space="preserve">
<style type="text/css">
	.st0{fill:#F7F2D0;}
	.st1{fill:#CF6928;}
	.st2{fill:#C42A2A;}
	.st3{fill:#FFFFFF;}
	.st4{fill:#662121;}
	.st5{fill:none;stroke:#F7F2D0;stroke-width:9;stroke-miterlimit:10;}
</style>
<polygon class="st0" points="299.1,340.8 310.6,329.8 337.3,332.9 328.4,352.7 303.6,353.8 "/>
<g>
	<path class="st0" d="M315.6,361.2c-3.6,0-6.4-1-8.3-2.9c-1.9-1.9-2.9-4.5-2.9-7.8v-12.1h-2.8V328l2.5-1.2c0.3-0.2,0.6-0.3,0.9-0.4
		s0.5-0.2,0.8-0.4c0.2-0.1,0.3-0.1,0.5-0.2c0.1-0.1,0.2-0.4,0.4-0.9l0.1-0.2c0.3-0.6,0.5-1.2,0.7-1.8c0.2-0.8,0.5-1.6,0.8-2.5
		l0.9-3.2h13.1l0.4,7.9h6.6v13.5H323v7.3c0,0.1,0,0.3,0,0.4c0.1,0,0.2,0,0.3-0.1l0.5-0.1h3.8l3.3,9.4l-2.4,2
		c-0.7,0.6-1.6,1.1-2.6,1.6c-0.9,0.4-1.9,0.8-3,1.2c-1.1,0.3-2.2,0.6-3.4,0.8C318.2,361.1,316.9,361.2,315.6,361.2z M313.4,331.4
		v19.1c0,0.9,0.2,1.3,0.3,1.4c0.1,0,0.4,0.2,1.1,0.2c-0.1-0.1-0.1-0.2-0.1-0.4c-0.3-0.8-0.5-1.7-0.6-2.9c0-0.8-0.1-1.8-0.1-3.2v-14
		l-0.1-1.1c0,0,0,0,0,0.1C313.7,330.8,313.6,331.1,313.4,331.4z"/>
	<path class="st0" d="M362.8,361.2h-40.3v-11.7l2.4-0.5v-23l-3.2-0.7v-11l15.5-1.8h1.5l4.6,3.4v9.5c0.1,0,0.1,0,0.2,0
		c1.3-0.3,2.7-0.4,4.1-0.4c2.2,0,4,0.3,5.6,1c1.8,0.8,3.3,1.9,4.4,3.5c1,1.4,1.6,3,2,5c0.3,1.6,0.4,3.3,0.4,5.3v9.2l2.8,0.5V361.2z
		 M350.6,352.2h0.5v-12.5c0-1.4-0.1-2.7-0.3-3.7c-0.1-0.8-0.4-1.2-0.5-1.5c-0.1-0.1-0.2-0.2-0.5-0.3l0,0c0.3,0.8,0.5,1.6,0.7,2.5
		c0.1,0.9,0.2,1.9,0.2,3v12.5H350.6z M333.9,352.2h0.7v-10.1l-0.7,0.6V352.2z M333.9,321.9v10l0.4-3.8v-6.3L333.9,321.9z"/>
</g>
<rect x="246.6" y="501.3" class="st0" width="29" height="8"/>
<polygon class="st0" points="233.7,284.2 273.7,281.7 273.7,312.3 197.7,312.3 "/>
<circle class="st0" cx="149.2" cy="396.9" r="163.5"/>
<g>
	<path class="st1" d="M160.4,329.4l43.6-6.5L191.5,354c0,0-11.3-2.8-19.1-10.7C164.6,335.4,160.4,329.4,160.4,329.4z"/>
	<path class="st2" d="M217.1,387.7c0,0,3.4-14,3.4-28.4c0-14.4-6.1-22.4-6.1-22.4h78.1l3,19h-52.3v6.8c0,0,64.1-10.2,64.1,45.5
		s-50.8,60.3-50.8,60.3h-31.1v-43.2c0,0,31.5,9.5,37.2-15.5S240.8,364,217.1,387.7z"/>
	<g>
		<path class="st2" d="M144.3,327.6c-47,0-47,35.3-47,35.3c0,43.6,39.4,25,39.4,25s-9.5-9.1-9.5-20.1c0-7.4,3.8-12.3,9.5-14.8
			l23.6-23.6C155.7,328.3,150.3,327.6,144.3,327.6z"/>
		<path d="M160.4,329.4L136.7,353c2.8-1.2,6.2-1.8,9.8-1.8c11,0,18.6,9.1,18.6,18.6c0,4.5,0.4,8.3-3,13.6l29.3-29.3
			C187.4,345.1,178.6,333.7,160.4,329.4z M164.6,349.6c-3.2,0-5.9-2.6-5.9-5.9c0-3.2,2.6-5.9,5.9-5.9c3.2,0,5.9,2.6,5.9,5.9
			C170.5,347,167.8,349.6,164.6,349.6z"/>
		<circle class="st3" cx="164.6" cy="343.8" r="5.9"/>
	</g>
</g>
<g>
	<path class="st2" d="M307.9,333.8h-2.8v-3.1c0.3-0.1,0.6-0.3,0.8-0.4c0.2-0.1,0.5-0.2,0.8-0.3s0.5-0.2,0.8-0.3
		c0.2-0.1,0.5-0.2,0.8-0.4c0.3-0.3,0.6-0.7,0.9-1.2c0.3-0.4,0.6-1,0.8-1.7c0.3-0.7,0.6-1.4,0.9-2.2c0.3-0.8,0.5-1.7,0.8-2.7h5.4
		l0.3,7.9h6.4v4.5h-6.3v11.8c0,1.2,0,2.2,0.1,2.9c0,0.7,0.1,1.2,0.3,1.6c0.1,0.4,0.3,0.6,0.6,0.7c0.3,0.1,0.6,0.1,1.1,0.1l0,0
		c0.8,0,1.5-0.1,2.1-0.2s1.2-0.2,1.7-0.4l0,0l1.2,3.4c-0.5,0.4-1,0.7-1.7,1.1c-0.7,0.3-1.5,0.6-2.3,0.9c-0.8,0.3-1.8,0.5-2.8,0.6
		c-1,0.2-2,0.2-3.1,0.2l0,0c-2.3,0-4-0.5-5.1-1.6c-1-1.1-1.6-2.6-1.6-4.6L307.9,333.8z"/>
	<path class="st2" d="M326,353.1l2.4-0.5l0.1-30.3l-3.2-0.7v-3.4l10.8-1.2h0.1l1.6,1.2v10.2l-0.5,4.4c0.4-0.4,0.9-0.7,1.5-1.1
		c0.6-0.4,1.3-0.8,2.1-1.1c0.8-0.3,1.6-0.6,2.6-0.8c1-0.2,2-0.3,3.1-0.3c1.6,0,2.9,0.2,3.9,0.6s1.8,1.1,2.4,1.9
		c0.6,0.9,1,1.9,1.2,3.2c0.2,1.3,0.4,2.8,0.3,4.5v13l2.8,0.5v3.5h-14.5v-3.5l2.3-0.5v-13c0-1,0-1.8-0.1-2.4
		c-0.1-0.7-0.2-1.2-0.5-1.6c-0.2-0.4-0.5-0.7-0.9-0.9c-0.4-0.2-0.9-0.3-1.5-0.3c-0.9,0-1.6,0.2-2.3,0.6c-0.7,0.4-1.3,0.8-1.7,1.3
		v16.3l2.4,0.5v3.5h-14.5L326,353.1z"/>
</g>
<g>
	<path class="st2" d="M23.5,464h3.4h8l1.6,5h36.8c0,0-4.2-54.6,0-84.9c4.2-30.3,7.6-59.2,7.6-59.2l-31.1-0.4
		c0,0-16.7,29.2-44.4,29.2V370c0,0,15.5,1.5,22-0.8s13.7-6.1,13.7-6.1L16.1,469h1.5l1.6-5H23.5z"/>
	<path class="st2" d="M118.8,462.8c0.8-0.8,1.8-1.5,2.9-2c1.1-0.4,2.3-0.7,3.6-0.7s2.4,0.2,3.4,0.6c1.1,0.4,2,1,2.8,1.7
		c0.8,0.8,1.4,1.6,1.8,2.7c0.4,1,0.6,2,0.6,3c0,0.2,0,0.4,0,0.6h67.6l1.2-42.1c0,0-8.3,9.9-20.1,9.9c-11.8,0-20.9-4.6-20.9-4.6
		s5.3-4.9,21.6-21.2c16.3-16.3,11.8-44.7,11.8-44.7s-0.5-5.3-3.6-11.9l-29.3,29.3c-3.8,5.8-12.2,13.5-31.2,25.8
		c-36,23.5-34.1,59.5-34.1,59.5h19.6c0-1.1,0.2-2.1,0.6-3.1C117.5,464.5,118.1,463.6,118.8,462.8z"/>
</g>
<g>
	<path class="st4" d="M47.1,304l3-0.3V290h-2.4l-1.1,5.6H44l0.4-7.6h16.2l0.3,7.6h-2.4l-1.2-5.6H55v13.7l3.3,0.3v1.7H47.1
		C47.1,305.7,47.1,304,47.1,304z"/>
	<path class="st4" d="M62.2,304l1.2-0.2V289l-1.6-0.4V287l5.3-0.6h0.1L68,287v5l-0.2,2.2c0.2-0.2,0.5-0.4,0.7-0.6
		c0.3-0.2,0.6-0.4,1-0.5s0.8-0.3,1.3-0.4c0.5-0.1,1-0.2,1.5-0.2c0.8,0,1.4,0.1,1.9,0.3c0.5,0.2,0.9,0.5,1.2,0.9
		c0.3,0.4,0.5,0.9,0.6,1.6c0.1,0.6,0.2,1.4,0.2,2.2v6.3l1.4,0.2v1.7h-7.1V304l1.1-0.2v-6.3c0-0.5,0-0.9-0.1-1.2
		c0-0.3-0.1-0.6-0.2-0.8c-0.1-0.2-0.3-0.3-0.5-0.4s-0.4-0.1-0.7-0.1c-0.4,0-0.8,0.1-1.1,0.3c-0.3,0.2-0.6,0.4-0.8,0.6v7.9l1.2,0.2
		v1.7h-7.1L62.2,304L62.2,304z"/>
	<path class="st4" d="M78.4,299.2c0-1.1,0.2-2.1,0.5-2.9c0.3-0.8,0.8-1.5,1.3-2.1c0.6-0.6,1.3-1,2.1-1.3c0.8-0.3,1.8-0.4,2.8-0.4
		c0.9,0,1.7,0.1,2.4,0.3c0.7,0.2,1.2,0.5,1.7,0.9c0.5,0.4,0.8,0.9,1,1.4c0.2,0.6,0.4,1.2,0.4,1.9c0,0.5,0,1-0.1,1.4s-0.1,0.7-0.2,1
		h-7.2c0.1,1.3,0.4,2.2,1,2.8c0.5,0.6,1.2,0.9,2.2,0.9c0.3,0,0.6,0,0.9-0.1c0.3-0.1,0.6-0.1,0.9-0.2s0.6-0.2,0.8-0.3
		s0.5-0.2,0.6-0.3l0.8,1.6c-0.2,0.2-0.4,0.4-0.8,0.6c-0.4,0.2-0.8,0.5-1.2,0.7c-0.5,0.2-1,0.4-1.6,0.5s-1.2,0.2-1.8,0.2
		c-1.2,0-2.2-0.2-3.1-0.5c-0.8-0.3-1.5-0.8-2.1-1.4c-0.5-0.6-0.9-1.3-1.1-2.1C78.6,301,78.4,300.1,78.4,299.2z M86.2,297.6
		c0,0,0-0.1,0-0.2s0-0.2,0-0.2c0-0.1,0-0.2,0-0.2s0-0.1,0-0.2c0-0.4,0-0.7-0.1-1c-0.1-0.3-0.1-0.6-0.2-0.8c-0.1-0.2-0.2-0.4-0.4-0.5
		c-0.2-0.1-0.4-0.2-0.7-0.2c-0.2,0-0.5,0-0.7,0.1c-0.2,0.1-0.4,0.2-0.5,0.5c-0.1,0.2-0.3,0.6-0.4,1c-0.1,0.4-0.1,1-0.1,1.7
		C83.1,297.6,86.2,297.6,86.2,297.6z"/>
	<path class="st4" d="M97.8,303.9l1.7-0.3v-13.3l-1.7-0.3v-2h4c0.4,0,0.8,0,1.1,0s0.7,0,1,0s0.7,0,1,0s0.7,0,1.1,0
		c1.5,0,2.7,0.2,3.8,0.5c1.1,0.4,2,0.9,2.8,1.6c0.7,0.7,1.3,1.5,1.7,2.6c0.4,1.1,0.5,2.2,0.5,3.5c0,1.4-0.2,2.6-0.6,3.8
		s-1,2.2-1.8,3.1s-1.7,1.5-2.9,2s-2.4,0.7-3.9,0.7c-0.3,0-0.7,0-1,0s-0.7,0-1.1,0c-0.3,0-0.7,0-1,0s-0.5,0-0.7,0h-4.1L97.8,303.9
		L97.8,303.9z M104.3,303.6c0.2,0.1,0.4,0.1,0.6,0.2c0.2,0.1,0.5,0.1,0.8,0.1c0.6,0,1.1-0.1,1.6-0.4c0.5-0.3,0.9-0.7,1.2-1.2
		c0.3-0.6,0.6-1.3,0.7-2.2c0.2-0.9,0.3-2,0.3-3.2c0-1-0.1-1.9-0.2-2.8c-0.1-0.9-0.3-1.6-0.7-2.2c-0.3-0.6-0.7-1.1-1.2-1.5
		s-1.1-0.5-1.9-0.5c-0.4,0-0.7,0-0.9,0.1s-0.3,0.1-0.4,0.1L104.3,303.6L104.3,303.6z"/>
	<path class="st4" d="M115.9,301.6c0-0.7,0.2-1.3,0.5-1.9c0.3-0.6,0.8-1,1.4-1.4c0.6-0.4,1.4-0.7,2.4-0.9c1-0.2,2.1-0.3,3.4-0.3
		v-0.3c0-0.3,0-0.5-0.1-0.7c-0.1-0.2-0.2-0.3-0.3-0.5c-0.2-0.1-0.4-0.2-0.7-0.3s-0.7-0.1-1.1-0.1c-0.5,0-0.9,0-1.3,0.1
		c-0.4,0-0.8,0.1-1.1,0.2c-0.3,0.1-0.6,0.1-0.9,0.2s-0.5,0.1-0.7,0.2l0,0l-0.9-1.7c0.2-0.1,0.4-0.3,0.8-0.5c0.4-0.2,0.8-0.4,1.4-0.6
		c0.5-0.2,1.1-0.4,1.8-0.5c0.7-0.1,1.4-0.2,2.2-0.2c1,0,1.9,0.1,2.5,0.3c0.7,0.2,1.2,0.5,1.6,0.8c0.4,0.3,0.7,0.9,0.9,1.5
		c0.2,0.6,0.3,1.3,0.3,2.2v6.5h1.2v1.7c-0.1,0-0.4,0.1-0.6,0.1c-0.3,0-0.6,0.1-0.9,0.1s-0.7,0.1-1,0.1s-0.7,0-0.9,0
		c-0.4,0-0.6,0-0.9-0.1c-0.2-0.1-0.4-0.1-0.5-0.2s-0.2-0.3-0.2-0.4c0-0.1-0.1-0.4-0.1-0.7v-0.4c-0.2,0.2-0.4,0.4-0.6,0.7
		s-0.5,0.4-0.8,0.6s-0.7,0.3-1.1,0.4c-0.4,0.1-0.8,0.2-1.3,0.2c-0.6,0-1.1-0.1-1.6-0.3c-0.5-0.2-0.9-0.5-1.3-0.8
		c-0.4-0.4-0.7-0.8-0.9-1.3C116,302.9,115.9,302.3,115.9,301.6z M120.7,301.1c0,0.3,0,0.6,0.1,0.9s0.2,0.5,0.3,0.7
		c0.1,0.2,0.3,0.3,0.5,0.5c0.2,0.1,0.4,0.2,0.6,0.2c0.2,0,0.5-0.1,0.7-0.2c0.3-0.1,0.5-0.3,0.6-0.5V299c-0.5,0-1,0.1-1.4,0.2
		c-0.4,0.1-0.7,0.3-0.9,0.5c-0.2,0.2-0.4,0.4-0.5,0.7C120.7,300.5,120.7,300.8,120.7,301.1z"/>
	<path class="st4" d="M130.1,304l1.3-0.2v-8.5l-1.5-0.5v-2.1l5.3-0.6h0.1l0.8,0.5v11.1l1.2,0.2v1.8h-7.2L130.1,304L130.1,304z
		 M132.5,290.7c-0.3-0.1-0.5-0.3-0.7-0.5c-0.2-0.2-0.4-0.4-0.5-0.7s-0.2-0.5-0.2-0.9s0.1-0.7,0.2-1c0.1-0.3,0.3-0.6,0.5-0.8
		c0.2-0.2,0.5-0.4,0.8-0.5c0.3-0.1,0.7-0.2,1.1-0.2l0,0c0.4,0,0.8,0.1,1.1,0.2c0.3,0.1,0.6,0.3,0.8,0.5c0.2,0.2,0.4,0.4,0.5,0.7
		s0.2,0.5,0.2,0.9s-0.1,0.7-0.2,1c-0.1,0.3-0.3,0.6-0.5,0.8c-0.2,0.2-0.5,0.4-0.9,0.5c-0.3,0.1-0.7,0.2-1.2,0.2l0,0
		C133.1,290.8,132.8,290.8,132.5,290.7z"/>
	<path class="st4" d="M138.6,304l1.3-0.2v-15l-1.6-0.4v-1.7l5.3-0.6h0.1l0.8,0.6v17l1.3,0.2v1.8h-7.2L138.6,304L138.6,304z"/>
	<path class="st4" d="M148,308.2c0.2,0,0.3,0.1,0.5,0.1s0.4,0.1,0.6,0.1c0.2,0,0.4,0,0.5,0c0.5,0,0.9-0.1,1.2-0.2
		c0.3-0.1,0.6-0.3,0.8-0.6c0.2-0.2,0.4-0.5,0.6-0.8c0.2-0.3,0.3-0.7,0.5-1h-1.5l-4.5-11.3l-1-0.3v-1.7h7.7v1.7l-1.6,0.3l1.8,6
		l0.5,1.9l0.4-1.9l1.7-6l-1.4-0.3v-1.7h5.7v1.7l-1.1,0.3c-0.1,0.4-0.3,0.8-0.5,1.3s-0.4,1.1-0.6,1.7c-0.2,0.6-0.4,1.2-0.7,1.9
		c-0.2,0.6-0.4,1.3-0.7,1.9c-0.3,0.6-0.4,1.2-0.6,1.7c-0.2,0.6-0.4,1-0.5,1.5c-0.2,0.4-0.3,0.8-0.4,1s-0.1,0.4-0.2,0.4
		c-0.3,0.9-0.7,1.7-1,2.4c-0.3,0.7-0.8,1.3-1.2,1.8s-0.9,0.8-1.5,1.1c-0.5,0.2-1.2,0.4-1.9,0.4c-0.2,0-0.4,0-0.6,0
		c-0.2,0-0.4,0-0.6,0c-0.2,0-0.4-0.1-0.5-0.1c-0.2,0-0.3-0.1-0.4-0.1V308C147.8,308.1,147.9,308.1,148,308.2z"/>
	<path class="st4" d="M166.4,297.1c0-1.5,0.2-2.7,0.7-3.9c0.5-1.2,1.1-2.1,1.9-2.9c0.8-0.8,1.8-1.4,2.9-1.8s2.3-0.6,3.6-0.6
		c0.6,0,1.2,0,1.8,0s1.1,0,1.6,0s1,0,1.4,0s0.7,0,1,0l-0.3,6.2h-3l-0.9-3.9c-0.1-0.1-0.1-0.1-0.2-0.2s-0.2-0.1-0.3-0.2
		c-0.1,0-0.3-0.1-0.5-0.1c-0.2,0-0.4,0-0.7,0c-0.5,0-1,0.1-1.4,0.4c-0.4,0.3-0.8,0.7-1.1,1.3s-0.5,1.3-0.7,2.1
		c-0.2,0.9-0.2,1.9-0.2,3s0.1,2.1,0.2,2.9c0.1,0.9,0.4,1.6,0.6,2.3c0.3,0.6,0.6,1.1,1.1,1.4c0.4,0.3,0.9,0.5,1.5,0.5
		c0.3,0,0.6,0,0.8-0.1c0.2,0,0.4-0.1,0.5-0.1c0.2-0.1,0.3-0.1,0.4-0.2s0.2-0.2,0.3-0.3l1.1-2.6l2.7,0.2l-0.4,4.1
		c-0.3,0-0.6,0.1-0.8,0.1c-0.3,0.1-0.5,0.1-0.8,0.2s-0.5,0.1-0.8,0.2s-0.6,0.1-0.9,0.2c-0.3,0.1-0.7,0.1-1.1,0.1s-0.9,0.1-1.4,0.1
		c-1.5,0-2.7-0.2-3.8-0.6s-2-1-2.7-1.8c-0.7-0.8-1.2-1.7-1.6-2.7C166.6,299.6,166.4,298.4,166.4,297.1z"/>
	<path class="st4" d="M182.3,301.6c0-0.7,0.2-1.3,0.5-1.9c0.3-0.6,0.8-1,1.4-1.4c0.6-0.4,1.4-0.7,2.4-0.9c1-0.2,2.1-0.3,3.4-0.3
		v-0.3c0-0.3,0-0.5-0.1-0.7c-0.1-0.2-0.2-0.3-0.3-0.5c-0.2-0.1-0.4-0.2-0.7-0.3s-0.7-0.1-1.1-0.1c-0.5,0-0.9,0-1.3,0.1
		c-0.4,0-0.8,0.1-1.1,0.2c-0.3,0.1-0.6,0.1-0.9,0.2s-0.5,0.1-0.7,0.2l0,0l-0.9-1.7c0.2-0.1,0.4-0.3,0.8-0.5c0.4-0.2,0.8-0.4,1.4-0.6
		c0.5-0.2,1.1-0.4,1.8-0.5c0.7-0.1,1.4-0.2,2.2-0.2c1,0,1.9,0.1,2.5,0.3c0.7,0.2,1.2,0.5,1.6,0.8c0.4,0.3,0.7,0.9,0.9,1.5
		c0.2,0.6,0.3,1.3,0.3,2.2v6.5h1.2v1.7c-0.1,0-0.4,0.1-0.6,0.1c-0.3,0-0.6,0.1-0.9,0.1s-0.7,0.1-1,0.1s-0.7,0-0.9,0
		c-0.4,0-0.6,0-0.9-0.1c-0.2-0.1-0.4-0.1-0.5-0.2s-0.2-0.3-0.2-0.4c0-0.1-0.1-0.4-0.1-0.7v-0.4c-0.2,0.2-0.4,0.4-0.6,0.7
		s-0.5,0.4-0.8,0.6s-0.7,0.3-1.1,0.4c-0.4,0.1-0.8,0.2-1.3,0.2c-0.6,0-1.1-0.1-1.6-0.3c-0.5-0.2-0.9-0.5-1.3-0.8
		c-0.4-0.4-0.7-0.8-0.9-1.3C182.4,302.9,182.3,302.3,182.3,301.6z M187.1,301.1c0,0.3,0,0.6,0.1,0.9s0.2,0.5,0.3,0.7
		c0.1,0.2,0.3,0.3,0.5,0.5c0.2,0.1,0.4,0.2,0.6,0.2s0.5-0.1,0.7-0.2c0.3-0.1,0.5-0.3,0.6-0.5V299c-0.5,0-1,0.1-1.4,0.2
		c-0.4,0.1-0.7,0.3-0.9,0.5c-0.2,0.2-0.4,0.4-0.5,0.7C187.1,300.5,187.1,300.8,187.1,301.1z"/>
	<path class="st4" d="M196.5,304l1.3-0.2v-8.2l-1.3-0.4V293l4.3-0.6h0.1l0.8,0.5v0.6l-0.1,2h0.1c0.1-0.3,0.2-0.6,0.4-1
		c0.2-0.4,0.5-0.7,0.9-1s0.8-0.6,1.2-0.8c0.5-0.2,1-0.3,1.5-0.3c0.2,0,0.5,0,0.6,0.1c0.2,0,0.3,0.1,0.4,0.2v4.8
		c-0.1-0.1-0.2-0.2-0.4-0.3c-0.1-0.1-0.3-0.2-0.5-0.2c-0.2-0.1-0.4-0.1-0.6-0.2c-0.2,0-0.5-0.1-0.8-0.1c-0.5,0-0.9,0.1-1.3,0.2
		s-0.7,0.2-0.8,0.4v6.6l2.4,0.2v1.7h-8.4V304H196.5z"/>
	<path class="st4" d="M213.1,305.8c-0.7,0-1.4-0.1-2-0.4c-0.6-0.2-1.2-0.6-1.6-1.1s-0.8-1.2-1.1-2c-0.3-0.8-0.4-1.8-0.4-2.9
		c0-0.6,0.1-1.2,0.2-1.8s0.3-1.1,0.6-1.6s0.6-1,1-1.4s0.9-0.8,1.4-1.1s1.2-0.6,1.8-0.7c0.7-0.2,1.4-0.3,2.3-0.3c0.2,0,0.3,0,0.5,0
		s0.3,0.1,0.5,0.1v-3.5l-2.2-0.4V287l5.8-0.5h0.1l0.8,0.7v16.7h1.2v1.7c-0.2,0-0.4,0.1-0.7,0.1c-0.3,0-0.6,0.1-0.9,0.1
		s-0.6,0.1-0.9,0.1s-0.6,0-0.8,0c-0.3,0-0.6,0-0.8-0.1c-0.2,0-0.4-0.1-0.5-0.2s-0.3-0.2-0.3-0.4c0-0.2-0.1-0.4-0.1-0.7V304
		c-0.2,0.3-0.4,0.5-0.7,0.8c-0.3,0.3-0.6,0.4-0.9,0.6c-0.3,0.2-0.7,0.3-1,0.4C213.8,305.7,213.5,305.8,213.1,305.8z M214.8,303.5
		c0.4,0,0.7-0.1,0.9-0.2c0.2-0.1,0.4-0.3,0.6-0.5v-8.1c-0.1-0.1-0.2-0.3-0.4-0.3c-0.2-0.1-0.4-0.1-0.7-0.1c-0.3,0-0.6,0.1-0.9,0.2
		c-0.3,0.2-0.5,0.4-0.7,0.8s-0.4,0.9-0.5,1.5c-0.1,0.6-0.2,1.4-0.2,2.3c0,0.8,0,1.4,0.1,2s0.2,1,0.4,1.4c0.2,0.4,0.4,0.6,0.6,0.8
		C214.2,303.4,214.5,303.5,214.8,303.5z"/>
	<path class="st4" d="M223.4,304l1.3-0.2v-8.5l-1.5-0.5v-2.1l5.3-0.6h0.1l0.8,0.5v11.1l1.2,0.2v1.8h-7.2L223.4,304L223.4,304z
		 M225.8,290.7c-0.3-0.1-0.5-0.3-0.7-0.5c-0.2-0.2-0.4-0.4-0.5-0.7s-0.2-0.5-0.2-0.9s0.1-0.7,0.2-1c0.1-0.3,0.3-0.6,0.5-0.8
		c0.2-0.2,0.5-0.4,0.8-0.5c0.3-0.1,0.7-0.2,1.1-0.2l0,0c0.4,0,0.8,0.1,1.1,0.2c0.3,0.1,0.6,0.3,0.8,0.5c0.2,0.2,0.4,0.4,0.5,0.7
		s0.2,0.5,0.2,0.9s-0.1,0.7-0.2,1c-0.1,0.3-0.3,0.6-0.5,0.8c-0.2,0.2-0.5,0.4-0.9,0.5c-0.3,0.1-0.7,0.2-1.2,0.2l0,0
		C226.4,290.8,226.1,290.8,225.8,290.7z"/>
	<path class="st4" d="M232.3,304l1.2-0.2v-8.2l-1.3-0.4V293l4.8-0.6h0.1l0.7,0.6v0.8v0.5c0.2-0.2,0.5-0.5,0.9-0.7
		c0.4-0.2,0.7-0.4,1.1-0.6s0.8-0.3,1.3-0.4s1-0.2,1.5-0.2c0.7,0,1.3,0.1,1.8,0.3c0.5,0.2,0.9,0.5,1.2,0.8c0.3,0.4,0.5,0.9,0.7,1.6
		c0.1,0.6,0.2,1.4,0.2,2.4v6.3l1.2,0.2v1.7h-6.9V304l1-0.2v-6.3c0-0.5,0-0.9-0.1-1.2c0-0.3-0.1-0.6-0.2-0.8s-0.3-0.3-0.5-0.4
		s-0.4-0.1-0.7-0.1c-0.2,0-0.4,0-0.6,0.1s-0.4,0.1-0.5,0.2c-0.2,0.1-0.3,0.2-0.4,0.3s-0.2,0.2-0.3,0.3v7.9l1.2,0.2v1.7h-7.1V304
		H232.3z"/>
	<path class="st4" d="M248.5,301.6c0-0.7,0.2-1.3,0.5-1.9c0.3-0.6,0.8-1,1.4-1.4c0.6-0.4,1.4-0.7,2.4-0.9c1-0.2,2.1-0.3,3.4-0.3
		v-0.3c0-0.3,0-0.5-0.1-0.7c-0.1-0.2-0.2-0.3-0.3-0.5c-0.2-0.1-0.4-0.2-0.7-0.3s-0.7-0.1-1.1-0.1c-0.5,0-0.9,0-1.3,0.1
		c-0.4,0-0.8,0.1-1.1,0.2c-0.3,0.1-0.6,0.1-0.9,0.2s-0.5,0.3-0.7,0.3l0,0l-0.9-1.7c0.2-0.1,0.4-0.3,0.8-0.5c0.4-0.2,0.8-0.4,1.4-0.6
		c0.5-0.2,1.1-0.4,1.8-0.5c0.7-0.1,1.4-0.2,2.2-0.2c1,0,1.9,0.1,2.5,0.3c0.7,0.2,1.2,0.5,1.6,0.8c0.4,0.3,0.7,0.9,0.9,1.5
		c0.2,0.6,0.3,1.3,0.3,2.2v6.5h1.2v1.7c-0.1,0-0.4,0.1-0.6,0.1c-0.3,0-0.6,0.1-0.9,0.1s-0.7,0.1-1,0.1s-0.7,0-0.9,0
		c-0.4,0-0.6,0-0.9-0.1c-0.2-0.1-0.4-0.1-0.5-0.2c-0.1-0.1-0.2-0.3-0.2-0.4c0-0.1-0.1-0.4-0.1-0.7V304c-0.2,0.2-0.4,0.4-0.6,0.7
		c-0.2,0.3-0.5,0.4-0.8,0.6s-0.7,0.3-1.1,0.4s-0.8,0.2-1.3,0.2c-0.6,0-1.1-0.1-1.6-0.3c-0.5-0.2-0.9-0.5-1.3-0.8
		c-0.4-0.4-0.7-0.8-0.9-1.3C248.7,302.9,248.5,302.3,248.5,301.6z M253.4,301.1c0,0.3,0,0.6,0.1,0.9s0.2,0.5,0.3,0.7
		c0.1,0.2,0.3,0.3,0.5,0.5c0.2,0.1,0.4,0.2,0.6,0.2s0.5-0.1,0.7-0.2c0.3-0.1,0.5-0.3,0.6-0.5V299c-0.5,0-1,0.1-1.4,0.2
		c-0.4,0.1-0.7,0.3-0.9,0.5c-0.2,0.2-0.4,0.4-0.5,0.7C253.4,300.5,253.4,300.8,253.4,301.1z"/>
	<path class="st4" d="M262.5,304l1.3-0.2v-15l-1.6-0.4v-1.7l5.3-0.6h0.1l0.8,0.6v17l1.3,0.2v1.8h-7.2L262.5,304L262.5,304z"/>
</g>
<g>
	<g>
		<path class="st5" d="M-16.8,505.3l2.9-0.6l11.2-34.4H8.6l11.2,34.4l2.7,0.6v3.9H4.7v-3.9l3.4-0.6l-1.5-5.5H-4.6l-1.4,5.7l3.9,0.5
			v3.9h-14.7L-16.8,505.3z M5.4,494.7l-4-14.8l-0.6-3.2l-0.6,3.2l-3.8,14.8H5.4z"/>
		<path class="st5" d="M24.1,505.4l2.6-0.5V487l-2.8-1v-4.8l10.6-1.3h0.1l1.5,1.2v1.7l-0.1,1.2c0.5-0.5,1.2-1,1.9-1.5
			c0.7-0.5,1.5-0.9,2.4-1.3c0.9-0.4,1.8-0.7,2.8-0.9c1-0.2,2.1-0.3,3.2-0.3c1.5,0,2.8,0.2,3.8,0.6c1.1,0.4,1.9,1,2.6,1.9
			c0.7,0.9,1.2,2,1.5,3.4c0.3,1.4,0.5,3.1,0.5,5.2v13.8l2.6,0.5v3.8H42.3v-3.8l2.2-0.5v-13.8c0-1.1-0.1-2-0.2-2.7
			c-0.1-0.7-0.3-1.3-0.5-1.7c-0.2-0.4-0.6-0.7-1-0.9c-0.4-0.2-0.9-0.3-1.5-0.3c-0.5,0-1,0.1-1.4,0.2c-0.4,0.1-0.8,0.3-1.2,0.5
			s-0.7,0.4-1,0.6c-0.3,0.2-0.5,0.4-0.7,0.6v17.4l2.6,0.5v3.8H24.1V505.4z"/>
		<path class="st5" d="M61,505.4l2.6-0.5V487l-2.8-1v-4.8l10.6-1.3h0.1l1.5,1.2v1.7l-0.1,1.2c0.5-0.5,1.2-1,1.9-1.5
			c0.7-0.5,1.5-0.9,2.4-1.3c0.9-0.4,1.8-0.7,2.8-0.9c1-0.2,2.1-0.3,3.2-0.3c1.5,0,2.8,0.2,3.8,0.6c1.1,0.4,1.9,1,2.6,1.9
			c0.7,0.9,1.2,2,1.5,3.4c0.3,1.4,0.5,3.1,0.5,5.2v13.8l2.6,0.5v3.8H79.2v-3.8l2.2-0.5v-13.8c0-1.1-0.1-2-0.2-2.7
			c-0.1-0.7-0.3-1.3-0.5-1.7c-0.2-0.4-0.6-0.7-1-0.9c-0.4-0.2-0.9-0.3-1.5-0.3c-0.5,0-1,0.1-1.4,0.2c-0.4,0.1-0.8,0.3-1.2,0.5
			s-0.7,0.4-1,0.6c-0.3,0.2-0.5,0.4-0.7,0.6v17.4l2.6,0.5v3.8H61V505.4z"/>
		<path class="st5" d="M97.6,505.3l2.9-0.5v-18.5l-3.3-1v-4.5l11.7-1.4h0.1l1.7,1.2v24.2l2.7,0.5v3.9H97.6V505.3z M102.9,476.2
			c-0.6-0.2-1.2-0.6-1.6-1c-0.5-0.4-0.8-0.9-1.1-1.5c-0.3-0.6-0.4-1.2-0.4-1.9c0-0.8,0.1-1.5,0.4-2.2c0.3-0.7,0.6-1.3,1.1-1.8
			c0.5-0.5,1.1-0.9,1.8-1.2c0.7-0.3,1.5-0.4,2.4-0.4h0c0.9,0,1.7,0.1,2.3,0.4c0.7,0.2,1.2,0.6,1.7,1c0.5,0.4,0.8,0.9,1,1.5
			s0.3,1.2,0.3,1.9c0,0.8-0.1,1.5-0.4,2.2c-0.2,0.7-0.6,1.3-1.1,1.8c-0.5,0.5-1.1,0.9-1.9,1.2c-0.8,0.3-1.6,0.4-2.6,0.4h0
			C104.2,476.6,103.5,476.5,102.9,476.2z"/>
		<path class="st5" d="M115.9,484.4l-1.9-0.6v-3.8h16.2v3.8l-3,0.6l4,13l0.9,3.8l0.7-3.8l3.9-13l-3.1-0.6v-3.8h12.9v3.8l-2.8,0.6
			l-9.3,24.7h-8.2L115.9,484.4z"/>
		<path class="st5" d="M146.2,494.8c0-2.4,0.3-4.5,1-6.3s1.7-3.4,2.9-4.6c1.3-1.2,2.8-2.2,4.6-2.8c1.8-0.6,3.8-1,6.1-1
			c2,0,3.7,0.2,5.2,0.7c1.5,0.5,2.7,1.1,3.7,2c1,0.8,1.7,1.9,2.2,3.1c0.5,1.2,0.8,2.6,0.8,4.1c0,1.1,0,2.1-0.1,3
			c-0.1,0.8-0.2,1.6-0.3,2.2h-15.6c0.3,2.8,0.9,4.8,2.1,6.1c1.1,1.3,2.7,1.9,4.8,1.9c0.7,0,1.3-0.1,2-0.2c0.7-0.1,1.4-0.3,2-0.5
			c0.6-0.2,1.2-0.4,1.8-0.7c0.6-0.2,1-0.4,1.4-0.7l1.7,3.6c-0.4,0.4-0.9,0.9-1.7,1.4c-0.8,0.5-1.7,1-2.7,1.5s-2.2,0.8-3.4,1.2
			c-1.2,0.3-2.5,0.5-3.9,0.5c-2.7,0-4.9-0.4-6.8-1.1c-1.8-0.7-3.3-1.7-4.5-3c-1.1-1.3-2-2.8-2.5-4.6
			C146.4,498.8,146.2,496.9,146.2,494.8z M163.1,491.3c0-0.1,0-0.2,0-0.4s0-0.3,0-0.5c0-0.2,0-0.3,0-0.5c0-0.2,0-0.3,0-0.4
			c0-0.9,0-1.6-0.1-2.3c-0.1-0.7-0.2-1.2-0.5-1.7c-0.2-0.5-0.5-0.8-0.9-1.1c-0.4-0.2-0.9-0.4-1.4-0.4c-0.5,0-1,0.1-1.5,0.3
			c-0.4,0.2-0.8,0.5-1.2,1c-0.3,0.5-0.6,1.3-0.8,2.2c-0.2,0.9-0.3,2.2-0.3,3.8H163.1z"/>
		<path class="st5" d="M176.2,505.4l2.8-0.5v-18l-2.8-1v-4.6l9.4-1.2h0.1l1.7,1.2v1.4l-0.2,4.3h0.2c0.2-0.6,0.5-1.4,1-2.2
			c0.5-0.8,1.2-1.6,1.9-2.3c0.8-0.7,1.7-1.3,2.7-1.8s2.1-0.7,3.3-0.7c0.5,0,1,0,1.4,0.1s0.7,0.2,0.9,0.3V491
			c-0.3-0.2-0.5-0.4-0.8-0.6s-0.6-0.4-1-0.5s-0.8-0.3-1.3-0.4s-1.1-0.1-1.8-0.1c-1.1,0-2.1,0.1-2.9,0.4s-1.4,0.5-1.8,0.8v14.4
			l5.3,0.5v3.7h-18.3V505.4z"/>
		<path class="st5" d="M202,500h5.7l1.5,4.1c0.1,0.2,0.3,0.3,0.5,0.5s0.6,0.3,0.9,0.4c0.4,0.1,0.7,0.2,1.1,0.3
			c0.4,0.1,0.8,0.1,1.2,0.1c0.6,0,1.1-0.1,1.6-0.2c0.5-0.1,0.8-0.3,1.1-0.6c0.3-0.2,0.5-0.5,0.7-0.9c0.2-0.3,0.2-0.7,0.2-1
			c0-0.6-0.2-1.2-0.7-1.6c-0.5-0.5-1.1-0.9-1.9-1.3c-0.8-0.4-1.7-0.8-2.7-1.2c-1-0.4-2.1-0.9-3.1-1.4c-1-0.5-1.8-1-2.6-1.5
			c-0.8-0.6-1.5-1.2-2-1.9c-0.6-0.7-1-1.5-1.3-2.4s-0.4-1.9-0.4-2.9c0-1.2,0.3-2.2,0.8-3.3c0.5-1,1.3-1.9,2.3-2.7
			c1-0.8,2.3-1.4,3.9-1.8s3.3-0.7,5.4-0.7c1.5,0,2.7,0,3.8,0c1.1,0,2.1,0.1,2.9,0.1c0.8,0,1.6,0.1,2.2,0.1s1.2,0,1.7,0v7.4h-5.5
			l-1.5-3.1c-0.1-0.2-0.5-0.4-1-0.6s-1.2-0.3-2-0.3c-1.2,0-2.1,0.2-2.8,0.7c-0.6,0.5-1,1.1-1,1.9c0,0.6,0.2,1.1,0.5,1.5
			c0.4,0.4,0.8,0.8,1.4,1.2c0.6,0.4,1.3,0.7,2.1,1c0.8,0.3,1.6,0.7,2.5,1c1.1,0.5,2.2,1,3.2,1.5c1.1,0.5,2,1.2,2.9,1.9
			c0.9,0.7,1.5,1.6,2.1,2.5s0.8,2.1,0.8,3.4c0,1.1-0.2,2.2-0.7,3.2c-0.5,1-1.2,1.9-2.2,2.7c-1,0.8-2.3,1.4-3.9,1.9
			c-1.6,0.5-3.6,0.7-5.9,0.7c-1.6,0-3-0.1-4.3-0.3c-1.3-0.2-2.4-0.4-3.4-0.6c-1-0.2-1.8-0.5-2.5-0.7c-0.7-0.2-1.3-0.4-1.8-0.4V500z"
			/>
		<path class="st5" d="M228.9,500.1c0-1.5,0.3-2.9,1-4.1c0.7-1.2,1.7-2.2,3.1-3.1c1.4-0.8,3.1-1.5,5.3-1.9c2.1-0.5,4.6-0.7,7.4-0.7
			v-0.6c0-0.6-0.1-1.1-0.2-1.5c-0.1-0.4-0.3-0.8-0.7-1c-0.3-0.3-0.8-0.5-1.4-0.6c-0.6-0.1-1.4-0.2-2.5-0.2c-1,0-2,0.1-2.9,0.2
			s-1.7,0.2-2.5,0.4s-1.4,0.3-2,0.5s-1.1,0.3-1.5,0.5h0l-2-3.8c0.4-0.3,0.9-0.6,1.8-1.1c0.8-0.5,1.8-0.9,3-1.4
			c1.2-0.4,2.5-0.8,4-1.1s3.1-0.5,4.8-0.5c2.2,0,4.1,0.2,5.5,0.6c1.5,0.4,2.6,1,3.5,1.8c0.9,0.8,1.5,1.9,1.9,3.2
			c0.4,1.3,0.5,2.9,0.5,4.7v14.2h2.6v3.8c-0.3,0.1-0.8,0.1-1.4,0.2s-1.3,0.2-2,0.2c-0.7,0.1-1.5,0.1-2.2,0.2s-1.5,0.1-2.1,0.1
			c-0.8,0-1.4-0.1-1.9-0.2c-0.5-0.1-0.9-0.3-1.1-0.5c-0.3-0.2-0.4-0.6-0.5-1c-0.1-0.4-0.1-0.9-0.1-1.5v-1c-0.3,0.5-0.8,1-1.3,1.5
			s-1.1,0.9-1.8,1.3c-0.7,0.4-1.5,0.7-2.4,1c-0.9,0.2-1.8,0.4-2.9,0.4c-1.2,0-2.4-0.2-3.4-0.6c-1.1-0.4-2-1-2.8-1.8
			c-0.8-0.8-1.5-1.7-1.9-2.8C229.2,502.9,228.9,501.6,228.9,500.1z M239.5,499c0,0.7,0.1,1.3,0.2,1.9s0.4,1.1,0.6,1.5s0.6,0.8,1,1
			c0.4,0.2,0.9,0.3,1.4,0.3c0.5,0,1-0.1,1.6-0.4c0.6-0.3,1-0.6,1.4-1v-8.1c-1.2,0-2.2,0.1-3,0.4c-0.8,0.3-1.4,0.6-1.9,1.1
			c-0.5,0.5-0.8,1-1,1.5C239.6,497.8,239.5,498.4,239.5,499z"/>
		<path class="st5" d="M260.1,505.4l2.8-0.5v-18l-2.8-1v-4.6l9.4-1.2h0.1l1.7,1.2v1.4l-0.2,4.3h0.2c0.2-0.6,0.5-1.4,1-2.2
			c0.5-0.8,1.2-1.6,1.9-2.3c0.8-0.7,1.7-1.3,2.7-1.8s2.1-0.7,3.3-0.7c0.5,0,1,0,1.4,0.1s0.7,0.2,0.9,0.3V491
			c-0.3-0.2-0.5-0.4-0.8-0.6s-0.6-0.4-1-0.5s-0.8-0.3-1.3-0.4s-1.1-0.1-1.8-0.1c-1.1,0-2.1,0.1-2.9,0.4s-1.4,0.5-1.8,0.8v14.4
			l5.3,0.5v3.7h-18.3V505.4z"/>
		<path class="st5" d="M287.5,514.5c0.3,0.1,0.7,0.2,1.1,0.3c0.4,0.1,0.8,0.1,1.2,0.2c0.4,0,0.8,0.1,1.1,0.1c1,0,1.9-0.2,2.6-0.5
			c0.7-0.3,1.3-0.8,1.8-1.3c0.5-0.5,0.9-1.1,1.3-1.8c0.3-0.7,0.7-1.4,1-2.2h-3.3l-9.8-24.7l-2.2-0.6v-3.8h16.8v3.8l-3.4,0.6
			l3.9,13.2l1.1,4.1l0.8-4.1l3.7-13.2l-3-0.6v-3.8h12.5v3.8l-2.4,0.6c-0.3,0.8-0.6,1.8-1,3c-0.4,1.1-0.8,2.4-1.3,3.7
			c-0.5,1.3-0.9,2.7-1.4,4.1c-0.5,1.4-1,2.8-1.5,4.1c-0.5,1.3-0.9,2.6-1.4,3.8c-0.4,1.2-0.8,2.3-1.1,3.2c-0.3,0.9-0.6,1.7-0.8,2.3
			c-0.2,0.6-0.3,0.9-0.4,1c-0.7,2-1.5,3.8-2.3,5.3c-0.8,1.5-1.7,2.8-2.6,3.9c-1,1-2,1.8-3.2,2.4c-1.2,0.5-2.6,0.8-4.1,0.8
			c-0.4,0-0.8,0-1.2,0c-0.4,0-0.9,0-1.3-0.1c-0.4-0.1-0.8-0.1-1.2-0.2c-0.4-0.1-0.6-0.2-0.9-0.3v-7.2
			C286.9,514.3,287.2,514.4,287.5,514.5z"/>
	</g>
	<g>
		<path class="st4" d="M-16.8,505.3l2.9-0.6l11.2-34.4H8.6l11.2,34.4l2.7,0.6v3.9H4.7v-3.9l3.4-0.6l-1.5-5.5H-4.6l-1.4,5.7l3.9,0.5
			v3.9h-14.7L-16.8,505.3z M5.4,494.7l-4-14.8l-0.6-3.2l-0.6,3.2l-3.8,14.8H5.4z"/>
		<path class="st4" d="M24.1,505.4l2.6-0.5V487l-2.8-1v-4.8l10.6-1.3h0.1l1.5,1.2v1.7l-0.1,1.2c0.5-0.5,1.2-1,1.9-1.5
			c0.7-0.5,1.5-0.9,2.4-1.3c0.9-0.4,1.8-0.7,2.8-0.9c1-0.2,2.1-0.3,3.2-0.3c1.5,0,2.8,0.2,3.8,0.6c1.1,0.4,1.9,1,2.6,1.9
			c0.7,0.9,1.2,2,1.5,3.4c0.3,1.4,0.5,3.1,0.5,5.2v13.8l2.6,0.5v3.8H42.3v-3.8l2.2-0.5v-13.8c0-1.1-0.1-2-0.2-2.7
			c-0.1-0.7-0.3-1.3-0.5-1.7c-0.2-0.4-0.6-0.7-1-0.9c-0.4-0.2-0.9-0.3-1.5-0.3c-0.5,0-1,0.1-1.4,0.2c-0.4,0.1-0.8,0.3-1.2,0.5
			s-0.7,0.4-1,0.6c-0.3,0.2-0.5,0.4-0.7,0.6v17.4l2.6,0.5v3.8H24.1V505.4z"/>
		<path class="st4" d="M61,505.4l2.6-0.5V487l-2.8-1v-4.8l10.6-1.3h0.1l1.5,1.2v1.7l-0.1,1.2c0.5-0.5,1.2-1,1.9-1.5
			c0.7-0.5,1.5-0.9,2.4-1.3c0.9-0.4,1.8-0.7,2.8-0.9c1-0.2,2.1-0.3,3.2-0.3c1.5,0,2.8,0.2,3.8,0.6c1.1,0.4,1.9,1,2.6,1.9
			c0.7,0.9,1.2,2,1.5,3.4c0.3,1.4,0.5,3.1,0.5,5.2v13.8l2.6,0.5v3.8H79.2v-3.8l2.2-0.5v-13.8c0-1.1-0.1-2-0.2-2.7
			c-0.1-0.7-0.3-1.3-0.5-1.7c-0.2-0.4-0.6-0.7-1-0.9c-0.4-0.2-0.9-0.3-1.5-0.3c-0.5,0-1,0.1-1.4,0.2c-0.4,0.1-0.8,0.3-1.2,0.5
			s-0.7,0.4-1,0.6c-0.3,0.2-0.5,0.4-0.7,0.6v17.4l2.6,0.5v3.8H61V505.4z"/>
		<path class="st4" d="M97.6,505.3l2.9-0.5v-18.5l-3.3-1v-4.5l11.7-1.4h0.1l1.7,1.2v24.2l2.7,0.5v3.9H97.6V505.3z M102.9,476.2
			c-0.6-0.2-1.2-0.6-1.6-1c-0.5-0.4-0.8-0.9-1.1-1.5c-0.3-0.6-0.4-1.2-0.4-1.9c0-0.8,0.1-1.5,0.4-2.2c0.3-0.7,0.6-1.3,1.1-1.8
			c0.5-0.5,1.1-0.9,1.8-1.2c0.7-0.3,1.5-0.4,2.4-0.4h0c0.9,0,1.7,0.1,2.3,0.4c0.7,0.2,1.2,0.6,1.7,1c0.5,0.4,0.8,0.9,1,1.5
			s0.3,1.2,0.3,1.9c0,0.8-0.1,1.5-0.4,2.2c-0.2,0.7-0.6,1.3-1.1,1.8c-0.5,0.5-1.1,0.9-1.9,1.2c-0.8,0.3-1.6,0.4-2.6,0.4h0
			C104.2,476.6,103.5,476.5,102.9,476.2z"/>
		<path class="st4" d="M115.9,484.4l-1.9-0.6v-3.8h16.2v3.8l-3,0.6l4,13l0.9,3.8l0.7-3.8l3.9-13l-3.1-0.6v-3.8h12.9v3.8l-2.8,0.6
			l-9.3,24.7h-8.2L115.9,484.4z"/>
		<path class="st4" d="M146.2,494.8c0-2.4,0.3-4.5,1-6.3s1.7-3.4,2.9-4.6c1.3-1.2,2.8-2.2,4.6-2.8c1.8-0.6,3.8-1,6.1-1
			c2,0,3.7,0.2,5.2,0.7c1.5,0.5,2.7,1.1,3.7,2c1,0.8,1.7,1.9,2.2,3.1c0.5,1.2,0.8,2.6,0.8,4.1c0,1.1,0,2.1-0.1,3
			c-0.1,0.8-0.2,1.6-0.3,2.2h-15.6c0.3,2.8,0.9,4.8,2.1,6.1c1.1,1.3,2.7,1.9,4.8,1.9c0.7,0,1.3-0.1,2-0.2c0.7-0.1,1.4-0.3,2-0.5
			c0.6-0.2,1.2-0.4,1.8-0.7c0.6-0.2,1-0.4,1.4-0.7l1.7,3.6c-0.4,0.4-0.9,0.9-1.7,1.4c-0.8,0.5-1.7,1-2.7,1.5s-2.2,0.8-3.4,1.2
			c-1.2,0.3-2.5,0.5-3.9,0.5c-2.7,0-4.9-0.4-6.8-1.1c-1.8-0.7-3.3-1.7-4.5-3c-1.1-1.3-2-2.8-2.5-4.6
			C146.4,498.8,146.2,496.9,146.2,494.8z M163.1,491.3c0-0.1,0-0.2,0-0.4s0-0.3,0-0.5c0-0.2,0-0.3,0-0.5c0-0.2,0-0.3,0-0.4
			c0-0.9,0-1.6-0.1-2.3c-0.1-0.7-0.2-1.2-0.5-1.7c-0.2-0.5-0.5-0.8-0.9-1.1c-0.4-0.2-0.9-0.4-1.4-0.4c-0.5,0-1,0.1-1.5,0.3
			c-0.4,0.2-0.8,0.5-1.2,1c-0.3,0.5-0.6,1.3-0.8,2.2c-0.2,0.9-0.3,2.2-0.3,3.8H163.1z"/>
		<path class="st4" d="M176.2,505.4l2.8-0.5v-18l-2.8-1v-4.6l9.4-1.2h0.1l1.7,1.2v1.4l-0.2,4.3h0.2c0.2-0.6,0.5-1.4,1-2.2
			c0.5-0.8,1.2-1.6,1.9-2.3c0.8-0.7,1.7-1.3,2.7-1.8s2.1-0.7,3.3-0.7c0.5,0,1,0,1.4,0.1s0.7,0.2,0.9,0.3V491
			c-0.3-0.2-0.5-0.4-0.8-0.6s-0.6-0.4-1-0.5s-0.8-0.3-1.3-0.4s-1.1-0.1-1.8-0.1c-1.1,0-2.1,0.1-2.9,0.4s-1.4,0.5-1.8,0.8v14.4
			l5.3,0.5v3.7h-18.3V505.4z"/>
		<path class="st4" d="M202,500h5.7l1.5,4.1c0.1,0.2,0.3,0.3,0.5,0.5s0.6,0.3,0.9,0.4c0.4,0.1,0.7,0.2,1.1,0.3
			c0.4,0.1,0.8,0.1,1.2,0.1c0.6,0,1.1-0.1,1.6-0.2c0.5-0.1,0.8-0.3,1.1-0.6c0.3-0.2,0.5-0.5,0.7-0.9c0.2-0.3,0.2-0.7,0.2-1
			c0-0.6-0.2-1.2-0.7-1.6c-0.5-0.5-1.1-0.9-1.9-1.3c-0.8-0.4-1.7-0.8-2.7-1.2c-1-0.4-2.1-0.9-3.1-1.4c-1-0.5-1.8-1-2.6-1.5
			c-0.8-0.6-1.5-1.2-2-1.9c-0.6-0.7-1-1.5-1.3-2.4s-0.4-1.9-0.4-2.9c0-1.2,0.3-2.2,0.8-3.3c0.5-1,1.3-1.9,2.3-2.7
			c1-0.8,2.3-1.4,3.9-1.8s3.3-0.7,5.4-0.7c1.5,0,2.7,0,3.8,0c1.1,0,2.1,0.1,2.9,0.1c0.8,0,1.6,0.1,2.2,0.1s1.2,0,1.7,0v7.4h-5.5
			l-1.5-3.1c-0.1-0.2-0.5-0.4-1-0.6s-1.2-0.3-2-0.3c-1.2,0-2.1,0.2-2.8,0.7c-0.6,0.5-1,1.1-1,1.9c0,0.6,0.2,1.1,0.5,1.5
			c0.4,0.4,0.8,0.8,1.4,1.2c0.6,0.4,1.3,0.7,2.1,1c0.8,0.3,1.6,0.7,2.5,1c1.1,0.5,2.2,1,3.2,1.5c1.1,0.5,2,1.2,2.9,1.9
			c0.9,0.7,1.5,1.6,2.1,2.5s0.8,2.1,0.8,3.4c0,1.1-0.2,2.2-0.7,3.2c-0.5,1-1.2,1.9-2.2,2.7c-1,0.8-2.3,1.4-3.9,1.9
			c-1.6,0.5-3.6,0.7-5.9,0.7c-1.6,0-3-0.1-4.3-0.3c-1.3-0.2-2.4-0.4-3.4-0.6c-1-0.2-1.8-0.5-2.5-0.7c-0.7-0.2-1.3-0.4-1.8-0.4V500z"
			/>
		<path class="st4" d="M228.9,500.1c0-1.5,0.3-2.9,1-4.1c0.7-1.2,1.7-2.2,3.1-3.1c1.4-0.8,3.1-1.5,5.3-1.9c2.1-0.5,4.6-0.7,7.4-0.7
			v-0.6c0-0.6-0.1-1.1-0.2-1.5c-0.1-0.4-0.3-0.8-0.7-1c-0.3-0.3-0.8-0.5-1.4-0.6c-0.6-0.1-1.4-0.2-2.5-0.2c-1,0-2,0.1-2.9,0.2
			s-1.7,0.2-2.5,0.4s-1.4,0.3-2,0.5s-1.1,0.3-1.5,0.5h0l-2-3.8c0.4-0.3,0.9-0.6,1.8-1.1c0.8-0.5,1.8-0.9,3-1.4
			c1.2-0.4,2.5-0.8,4-1.1s3.1-0.5,4.8-0.5c2.2,0,4.1,0.2,5.5,0.6c1.5,0.4,2.6,1,3.5,1.8c0.9,0.8,1.5,1.9,1.9,3.2
			c0.4,1.3,0.5,2.9,0.5,4.7v14.2h2.6v3.8c-0.3,0.1-0.8,0.1-1.4,0.2s-1.3,0.2-2,0.2c-0.7,0.1-1.5,0.1-2.2,0.2s-1.5,0.1-2.1,0.1
			c-0.8,0-1.4-0.1-1.9-0.2c-0.5-0.1-0.9-0.3-1.1-0.5c-0.3-0.2-0.4-0.6-0.5-1c-0.1-0.4-0.1-0.9-0.1-1.5v-1c-0.3,0.5-0.8,1-1.3,1.5
			s-1.1,0.9-1.8,1.3c-0.7,0.4-1.5,0.7-2.4,1c-0.9,0.2-1.8,0.4-2.9,0.4c-1.2,0-2.4-0.2-3.4-0.6c-1.1-0.4-2-1-2.8-1.8
			c-0.8-0.8-1.5-1.7-1.9-2.8C229.2,502.9,228.9,501.6,228.9,500.1z M239.5,499c0,0.7,0.1,1.3,0.2,1.9s0.4,1.1,0.6,1.5s0.6,0.8,1,1
			c0.4,0.2,0.9,0.3,1.4,0.3c0.5,0,1-0.1,1.6-0.4c0.6-0.3,1-0.6,1.4-1v-8.1c-1.2,0-2.2,0.1-3,0.4c-0.8,0.3-1.4,0.6-1.9,1.1
			c-0.5,0.5-0.8,1-1,1.5C239.6,497.8,239.5,498.4,239.5,499z"/>
		<path class="st4" d="M260.1,505.4l2.8-0.5v-18l-2.8-1v-4.6l9.4-1.2h0.1l1.7,1.2v1.4l-0.2,4.3h0.2c0.2-0.6,0.5-1.4,1-2.2
			c0.5-0.8,1.2-1.6,1.9-2.3c0.8-0.7,1.7-1.3,2.7-1.8s2.1-0.7,3.3-0.7c0.5,0,1,0,1.4,0.1s0.7,0.2,0.9,0.3V491
			c-0.3-0.2-0.5-0.4-0.8-0.6s-0.6-0.4-1-0.5s-0.8-0.3-1.3-0.4s-1.1-0.1-1.8-0.1c-1.1,0-2.1,0.1-2.9,0.4s-1.4,0.5-1.8,0.8v14.4
			l5.3,0.5v3.7h-18.3V505.4z"/>
		<path class="st4" d="M287.5,514.5c0.3,0.1,0.7,0.2,1.1,0.3c0.4,0.1,0.8,0.1,1.2,0.2c0.4,0,0.8,0.1,1.1,0.1c1,0,1.9-0.2,2.6-0.5
			c0.7-0.3,1.3-0.8,1.8-1.3c0.5-0.5,0.9-1.1,1.3-1.8c0.3-0.7,0.7-1.4,1-2.2h-3.3l-9.8-24.7l-2.2-0.6v-3.8h16.8v3.8l-3.4,0.6
			l3.9,13.2l1.1,4.1l0.8-4.1l3.7-13.2l-3-0.6v-3.8h12.5v3.8l-2.4,0.6c-0.3,0.8-0.6,1.8-1,3c-0.4,1.1-0.8,2.4-1.3,3.7
			c-0.5,1.3-0.9,2.7-1.4,4.1c-0.5,1.4-1,2.8-1.5,4.1c-0.5,1.3-0.9,2.6-1.4,3.8c-0.4,1.2-0.8,2.3-1.1,3.2c-0.3,0.9-0.6,1.7-0.8,2.3
			c-0.2,0.6-0.3,0.9-0.4,1c-0.7,2-1.5,3.8-2.3,5.3c-0.8,1.5-1.7,2.8-2.6,3.9c-1,1-2,1.8-3.2,2.4c-1.2,0.5-2.6,0.8-4.1,0.8
			c-0.4,0-0.8,0-1.2,0c-0.4,0-0.9,0-1.3-0.1c-0.4-0.1-0.8-0.1-1.2-0.2c-0.4-0.1-0.6-0.2-0.9-0.3v-7.2
			C286.9,514.3,287.2,514.4,287.5,514.5z"/>
	</g>
</g>
<polygon class="st2" points="116.5,468.7 133.9,468.7 143.3,455.3 113.7,456 "/>
<polygon class="st2" points="17.6,469 36.5,469 47.7,452.3 19,462.3 "/>
</svg>
